<svg xmlns="http://www.w3.org/2000/svg" xmlns:xlink="http://www.w3.org/1999/xlink" x="0" y="0" version="1.1" viewBox="0 0 2000 2000" xml:space="preserve" style="enable-background:new 0 0 2000 2000"><style type="text/css">.st0{fill:#fff}</style><g id="图层_1"><path d="M363.7,1245.7c0-15.2,0-30.4,0-45.5c0.6-2.3,1.5-4.6,1.8-6.9c15.6-106.3,73.6-178.9,173.8-217.5 c7.7-3,10.2-6.2,10.3-14.5c1.7-88.1,60.1-162.2,145.3-184c15.2-3.9,31.1-5.2,47.5-7.8c1.9-71.3,25.6-135,74.9-188 c49.3-53,110.7-82.5,182.8-88.3c59.9-4.8,116,8.8,167,40.7c71.5,44.7,113.5,109.8,129.1,191.8c1.9,0,3,0.2,4,0 c127.5-21.1,241.3,74.8,241.3,203.5c0,7.5,2.6,11.4,8.6,15.7c99.1,69.7,145.4,165.6,129.2,285.4 c-16.3,120.2-86.5,200.7-201.3,241.1c-15.5,5.5-31.9,8.2-47.9,12.2c-28.3,0-56.6,0-84.9,0c-1.9-0.7-3.7-1.6-5.7-2 c-49.5-8.5-93.9-28.2-133.4-59.1c-5.3-4.2-10.5-8.6-15.9-13c-2.6,2.3-4.6,4-6.6,5.9c-30,27.8-64.7,47.7-103.8,59.4 c-11.5,3.4-23.2,5.9-34.8,8.8c-26.9,0-53.8,0-80.8,0c-15.8-4.4-31.9-8-47.4-13.4c-38.7-13.4-72-35.7-101.1-65.3 c-2.9,2.7-5.4,4.9-7.9,7.3c-30.7,29.4-66.3,50.3-107,62.5c-11.5,3.4-23.2,6-34.8,8.9c-26.9,0-53.8,0-80.8,0c-1.9-0.7-3.7-1.6-5.6-2 c-106.1-22.8-175.1-86.1-206.6-189.8C368.5,1276.9,366.7,1261.1,363.7,1245.7z M1165.7,1328.1c1.7,0.8,3.4,1.7,5.1,2.6 c12.8-14,25.2-28.3,38.6-41.8c5.6-5.7,6.7-10.7,5.1-18.3c-7.9-38.8-15.2-77.7-22.7-116.6c-10.2-52.7-20.3-105.5-31-158.2 c-1.7-8.2-0.2-13.4,5.6-19.1c31.5-31,62.8-62.1,93.8-93.5c18-18.2,35.3-37.1,43.4-62.2c10.6-32.6-13.3-60.2-46.9-53.7 c-10.9,2.1-22.2,6.2-31.4,12.2c-14.3,9.4-27.9,20.3-40.2,32.3c-31.7,30.7-62.6,62.3-93.6,93.7c-5.1,5.2-10,7-17.4,5.5 c-17.5-3.6-35.3-6.3-52.9-9.4c-74-12.8-148-25.6-222.1-38.2c-3.5-0.6-8.7-1.1-10.7,0.9c-15.2,15.2-29.8,31.1-45.2,47.4 c86,30.8,172.7,61.8,259.7,92.9c-1.4,2.5-1.7,3.5-2.4,4.2c-37.9,40.1-75.8,80.3-114,120.1c-2.5,2.6-8,4-11.8,3.5 c-33.9-4.1-67.7-8.9-101.5-13.2c-3.8-0.5-8.9-0.7-11.7,1.4c-7.8,5.5-14.6,12.2-22.9,19.4c37,23,71,44,104.8,65.3 c4.5,2.8,8.7,6.8,11.7,11.2c20.2,29.2,40,58.7,59.9,88.1c6.1,9,12.4,18,18.5,26.9c21.3-13.4,24.4-19.2,20.2-41.9 c-5.4-29.5-11.2-58.9-17.4-88.2c-2.1-10.1-1.8-17.6,7.2-25.4c38.5-33.5,76.1-68,114.1-102.1c2.9-2.6,6.3-4.8,10.5-8 C1101.1,1154.3,1133.4,1241.2,1165.7,1328.1z" class="st0"/></g></svg>