<svg xmlns="http://www.w3.org/2000/svg" xmlns:xlink="http://www.w3.org/1999/xlink" id="图层_1" x="0" y="0" version="1.1" viewBox="0 0 2000 2000" xml:space="preserve" style="enable-background:new 0 0 2000 2000"><switch><g><path d="M363.7,1014.66c0-15.18,0-30.36,0-45.53c0.62-2.31,1.47-4.58,1.81-6.93c15.57-106.35,73.64-178.87,173.85-217.48 c7.7-2.97,10.18-6.17,10.33-14.47c1.65-88.12,60.08-162.21,145.3-184.04c15.21-3.9,31.09-5.19,47.49-7.83 c1.88-71.34,25.59-134.98,74.89-187.99c49.33-53.04,110.72-82.47,182.84-88.26c59.91-4.81,115.98,8.84,166.97,40.71 c71.49,44.67,113.5,109.75,129.12,191.84c1.94,0,2.99,0.15,3.99-0.02c127.5-21.14,241.33,74.77,241.25,203.55 c-0.01,7.53,2.58,11.43,8.58,15.65c99.08,69.74,145.44,165.63,129.21,285.42c-16.28,120.18-86.52,200.65-201.27,241.14 c-15.48,5.46-31.92,8.23-47.91,12.24c-28.3,0-56.6,0-84.9,0c-1.88-0.67-3.71-1.64-5.65-1.98c-49.47-8.46-93.92-28.23-133.43-59.11 c-5.33-4.17-10.5-8.55-15.9-12.97c-2.56,2.26-4.63,4.03-6.63,5.88c-30,27.85-64.65,47.65-103.85,59.36 c-11.46,3.43-23.19,5.91-34.8,8.82c-26.92,0-53.84,0-80.76,0c-15.83-4.41-31.94-8.03-47.44-13.4 c-38.72-13.43-72.04-35.66-101.06-65.27c-2.89,2.67-5.42,4.93-7.86,7.27c-30.65,29.42-66.34,50.26-106.99,62.5 c-11.47,3.45-23.22,5.96-34.84,8.9c-26.92,0-53.84,0-80.76,0c-1.87-0.68-3.69-1.6-5.62-2.02 c-106.12-22.78-175.11-86.12-206.65-189.8C368.45,1045.9,366.73,1030.08,363.7,1014.66z M1165.65,1097.05 c1.7,0.85,3.39,1.71,5.09,2.56c12.79-13.99,25.22-28.35,38.56-41.8c5.63-5.67,6.65-10.7,5.1-18.28 c-7.93-38.79-15.19-77.72-22.73-116.6c-10.23-52.74-20.25-105.52-31-158.15c-1.67-8.21-0.16-13.36,5.64-19.06 c31.47-30.96,62.75-62.11,93.78-93.52c17.97-18.19,35.26-37.09,43.39-62.15c10.57-32.56-13.25-60.2-46.89-53.67 c-10.9,2.12-22.19,6.15-31.4,12.2c-14.31,9.4-27.88,20.35-40.18,32.28c-31.69,30.74-62.6,62.28-93.58,93.74 c-5.13,5.21-10.04,7.01-17.38,5.49c-17.54-3.62-35.26-6.35-52.92-9.39c-74.02-12.78-148.04-25.59-222.09-38.22 c-3.5-0.6-8.74-1.06-10.69,0.88c-15.18,15.24-29.76,31.09-45.15,47.41c86.01,30.76,172.66,61.75,259.7,92.88 c-1.37,2.46-1.7,3.48-2.37,4.19c-37.91,40.1-75.77,80.25-113.99,120.05c-2.51,2.61-7.98,3.97-11.78,3.51 c-33.87-4.12-67.66-8.87-101.52-13.16c-3.85-0.49-8.87-0.65-11.7,1.36c-7.75,5.49-14.63,12.23-22.92,19.39 c36.97,22.97,70.98,43.95,104.79,65.27c4.5,2.84,8.72,6.82,11.74,11.19c20.16,29.22,39.95,58.69,59.89,88.06 c6.13,9.03,12.39,17.98,18.55,26.9c21.33-13.37,24.37-19.24,20.2-41.88c-5.43-29.46-11.21-58.86-17.36-88.18 c-2.12-10.1-1.83-17.59,7.15-25.41c38.49-33.51,76.11-68.02,114.1-102.11c2.92-2.62,6.25-4.8,10.53-8.05 C1101.09,923.24,1133.37,1010.15,1165.65,1097.05z"/><g><path d="M556.07,1588.96l25.43,85.12c0.71,2.09,1.4,4.79,2.06,8.08c0.67,3.29,0.91,6.08,0.73,8.38l8.65-0.6l-0.27,6.58h-28.89 l0.13-4.94c3.37-0.1,5.59-0.95,6.66-2.54c1.06-1.59,1.51-3.49,1.33-5.68c-0.18-2.19-0.53-4.19-1.06-5.98l-3.86-14.06l-34.08,0.9 l-5.33,16.01c-0.8,2.39-1.49,4.29-2.06,5.68c-0.58,1.4-1.26,2.94-2.06,4.64l9.98-0.6l-0.27,6.58H508.8l0.13-4.94 c2.22-0.1,4.13-0.92,5.72-2.47c1.6-1.54,3.06-3.71,4.39-6.51c1.33-2.79,2.66-6.03,3.99-9.72l30.09-83.93H556.07z M551.54,1609.76 c-0.98,2.79-1.95,5.59-2.93,8.38s-1.95,5.59-2.93,8.38l-10.65,31.27h30.48l-8.65-29.92c-0.89-2.99-1.75-5.98-2.6-8.98 C553.43,1615.89,552.52,1612.85,551.54,1609.76z"/><path d="M640.87,1620.08c3.99,0,7.26,1.42,9.78,4.26c2.53,2.84,4.3,6.58,5.32,11.22s1.35,9.65,1,15.04 c-0.36,5.39-1.42,10.67-3.19,15.86c-1.33,3.99-3.08,7.85-5.26,11.59s-4.66,7.13-7.46,10.17c-2.8,3.04-5.79,5.46-8.99,7.26 c-3.19,1.79-6.52,2.69-9.98,2.69c-3.64,0-6.57-0.87-8.79-2.62c-2.22-1.74-3.82-4.09-4.79-7.03c-0.98-2.94-1.51-6.11-1.6-9.5 c-0.09-4.19,0-8.43,0.27-12.72c0.27-4.29,0.58-8.45,0.93-12.49s0.69-7.73,1-11.07s0.47-6.11,0.47-8.3c0-1.79-0.22-3.37-0.67-4.71 c-0.45-1.35-1.46-2.02-3.06-2.02c-1.42,0-2.97,1.1-4.66,3.29c-1.69,2.19-3.15,5.98-4.39,11.37l-3.73-1.05 c0.27-1.79,0.78-3.86,1.53-6.21c0.75-2.34,1.8-4.66,3.13-6.96c1.33-2.29,2.97-4.19,4.93-5.68c1.95-1.5,4.26-2.29,6.92-2.39 c2.4-0.1,4.39,0.4,5.99,1.5s2.82,2.72,3.66,4.86c0.84,2.15,1.31,4.76,1.4,7.85c0,2.99-0.11,6.51-0.33,10.55 c-0.22,4.04-0.49,8.18-0.8,12.42s-0.6,8.23-0.87,11.97s-0.45,6.91-0.53,9.5c0,1.6,0.09,3.29,0.27,5.09 c0.18,1.79,0.71,3.29,1.6,4.49c0.89,1.2,2.4,1.8,4.53,1.8c2.22,0,4.53-0.75,6.92-2.24c2.4-1.5,4.73-3.49,6.99-5.98 s4.3-5.36,6.12-8.6s3.22-6.66,4.19-10.25c0.53-1.99,1.02-4.61,1.46-7.85s0.6-6.58,0.47-10.02c-0.13-3.44-0.69-6.56-1.66-9.35 c-0.98-2.79-2.58-4.69-4.79-5.68c-0.53,1.3-1.26,2.24-2.2,2.84c-0.93,0.6-1.98,0.9-3.13,0.9s-2.35-0.5-3.59-1.5 c-1.24-1-1.91-2.59-2-4.79c0-1,0.24-2.07,0.73-3.22s1.29-2.14,2.4-2.99C637.52,1620.51,639,1620.08,640.87,1620.08z"/><path d="M680.27,1620.08c3.73,0,6.52,1.42,8.39,4.26c1.86,2.84,2.8,6.61,2.8,11.29c0,2.99-0.25,6.41-0.73,10.25 c-0.49,3.84-1.09,7.96-1.8,12.34c-0.71,4.39-1.31,8.8-1.8,13.24s-0.73,8.75-0.73,12.94c0,2,0.33,3.54,1,4.64s1.71,1.65,3.13,1.65 c1.51,0,3.17-1.1,4.99-3.29c1.82-2.19,3.4-5.93,4.73-11.22l3.73,0.9c-0.36,2.09-0.96,4.36-1.8,6.81 c-0.84,2.45-1.93,4.74-3.26,6.88c-1.33,2.15-2.95,3.92-4.86,5.31c-1.91,1.4-4.11,2.09-6.59,2.09c-4.08,0-7.1-1.2-9.05-3.59 s-2.93-5.88-2.93-10.47c0-4.39,0.27-8.65,0.8-12.79c0.53-4.14,1.13-8.23,1.8-12.27s1.26-8.1,1.8-12.19 c0.53-4.09,0.8-8.28,0.8-12.57c0-1.29-0.25-2.74-0.73-4.34c-0.49-1.59-1.49-2.39-3-2.39c-1.42,0-3.06,1.1-4.93,3.29 c-1.86,2.19-3.46,5.93-4.79,11.22l-3.73-0.9c0.27-1.79,0.8-3.86,1.6-6.21c0.8-2.34,1.88-4.66,3.26-6.96 c1.38-2.29,3.04-4.19,4.99-5.68C675.3,1620.83,677.61,1620.08,680.27,1620.08z M687.86,1587.77c2.04,0,3.73,0.77,5.06,2.32 c1.33,1.55,2,3.62,2,6.21c0,2.49-0.71,4.51-2.13,6.06s-3.11,2.32-5.06,2.32s-3.62-0.77-4.99-2.32c-1.38-1.54-2.06-3.56-2.06-6.06 c0-2.59,0.71-4.66,2.13-6.21C684.22,1588.54,685.9,1587.77,687.86,1587.77z"/><path d="M749.49,1620.08c2.66,0,5.59,0.22,8.79,0.67c3.19,0.45,6.21,1.07,9.05,1.87c-0.71,5.98-1.4,11.94-2.06,17.88 c-0.67,5.94-1.29,11.57-1.86,16.91c-0.58,5.34-1.04,10.12-1.4,14.36c-0.36,4.24-0.53,7.55-0.53,9.95c0,2,0.13,3.99,0.4,5.98 c0.27,2,1.37,2.99,3.33,2.99c1.51,0,3.17-1.1,4.99-3.29c1.82-2.19,3.39-5.93,4.73-11.22l3.73,0.9c-0.27,1.79-0.82,3.87-1.66,6.21 c-0.84,2.34-1.98,4.66-3.39,6.96c-1.42,2.29-3.15,4.19-5.19,5.68c-2.04,1.5-4.39,2.24-7.06,2.24c-3.55,0-6.08-1.25-7.59-3.74 s-2.26-5.73-2.26-9.72c0-2.89,0.24-6.03,0.73-9.42s1.04-6.93,1.66-10.62h-0.4c-2.13,7.38-4.33,13.29-6.59,17.73 s-4.53,7.81-6.79,10.1c-2.26,2.29-4.46,3.81-6.59,4.56s-4.13,1.12-5.99,1.12c-4.79,0-8.81-1.99-12.05-5.98 s-4.86-10.67-4.86-20.05c0-6.98,0.8-13.61,2.4-19.9c1.6-6.28,4.01-11.84,7.25-16.68c3.24-4.84,7.3-8.63,12.18-11.37 C737.33,1621.45,743.01,1620.08,749.49,1620.08z M745.36,1625.47c-3.99,0-7.48,1.25-10.45,3.74c-2.97,2.49-5.44,5.86-7.39,10.1 s-3.39,8.98-4.33,14.21c-0.93,5.24-1.4,10.6-1.4,16.08c0,6.38,0.62,11.65,1.86,15.78c1.24,4.14,3.5,6.21,6.79,6.21 c2.4,0,4.81-1.35,7.25-4.04c2.44-2.69,4.73-6.31,6.86-10.85c2.13-4.54,4.04-9.62,5.72-15.26c1.68-5.63,3.02-11.39,3.99-17.28 c0.98-5.88,1.46-11.52,1.46-16.91c-1.33-0.6-2.89-1.05-4.66-1.35C749.31,1625.62,747.4,1625.47,745.36,1625.47z"/><path d="M807.53,1600.63l-2.4,21.09h21.17l-0.4,5.68l-21.3,0.3c-0.36,4.19-0.78,8.5-1.26,12.94c-0.49,4.44-0.91,8.85-1.26,13.24 c-0.36,4.39-0.67,8.6-0.93,12.64s-0.4,7.7-0.4,11c0,1.9,0.11,3.87,0.33,5.91c0.22,2.04,0.78,3.74,1.66,5.09 c0.89,1.35,2.31,2.02,4.26,2.02c0.89,0,1.97-0.2,3.26-0.6c1.29-0.4,2.73-1.35,4.33-2.84c1.6-1.5,3.24-3.84,4.93-7.03l3.46,2.54 c-2.57,5.09-5.35,8.95-8.32,11.59c-2.97,2.64-6.59,3.96-10.85,3.96c-3.46,0-6.19-0.82-8.19-2.47s-3.44-3.81-4.33-6.51 c-0.89-2.69-1.33-5.58-1.33-8.68c0-3.79,0.13-8.4,0.4-13.84c0.27-5.43,0.67-11.47,1.2-18.1s1.15-13.54,1.86-20.72l-11.85,0.15 l0.4-6.28c6.12,0,10.65-1.84,13.58-5.54c2.93-3.69,5.24-8.88,6.92-15.56h5.06V1600.63z"/><path d="M865.17,1620.08c4.79,0,9.1,1.27,12.91,3.81s6.83,6.26,9.05,11.15s3.33,10.82,3.33,17.8c0,7.98-1.29,15.43-3.86,22.37 c-2.58,6.93-6.28,12.49-11.12,16.68c-4.84,4.19-10.72,6.28-17.64,6.28c-5.86,0-10.67-1.5-14.44-4.49s-6.57-7.03-8.39-12.12 s-2.73-10.72-2.73-16.91c0-8.08,1.31-15.51,3.93-22.29s6.39-12.19,11.32-16.23S858.34,1620.08,865.17,1620.08z M863.18,1625.62 c-3.91-0.1-7.28,1.37-10.12,4.41c-2.84,3.04-5.04,7.16-6.59,12.34c-1.55,5.19-2.38,10.97-2.46,17.35 c-0.09,3.39,0.09,6.98,0.53,10.77s1.22,7.33,2.33,10.62c1.11,3.29,2.66,5.98,4.66,8.08c2,2.09,4.5,3.19,7.52,3.29 c3.55,0.1,6.57-0.97,9.05-3.22c2.48-2.24,4.48-5.16,5.99-8.75s2.64-7.43,3.39-11.52s1.17-7.93,1.26-11.52 c0.09-3.49-0.07-7.08-0.47-10.77c-0.4-3.69-1.18-7.13-2.33-10.32s-2.75-5.76-4.79-7.71 C869.12,1626.74,866.46,1625.72,863.18,1625.62z"/><path d="M909.9,1696.53c-0.09-0.7-0.13-1.32-0.13-1.87s0-1.22,0-2.02c0-1.69,0.04-3.71,0.13-6.06c0.09-2.34,0.29-5.46,0.6-9.35 s0.78-8.98,1.4-15.26c0.62-6.48,1.11-11.37,1.46-14.66c0.35-3.29,0.62-5.71,0.8-7.26c0.18-1.54,0.27-2.82,0.27-3.81 c0.09-1.99-0.02-3.94-0.33-5.83s-1.4-2.84-3.26-2.84c-1.42,0-3.06,1.1-4.93,3.29c-1.86,2.19-3.46,5.93-4.79,11.22l-3.73-0.9 c0.27-1.79,0.82-3.86,1.66-6.21c0.84-2.34,1.97-4.66,3.39-6.96c1.42-2.29,3.15-4.19,5.19-5.68c2.04-1.5,4.39-2.24,7.05-2.24 c3.99,0,6.66,1.55,7.99,4.64s1.91,7.23,1.73,12.42c-0.09,2.19-0.33,4.61-0.73,7.25c-0.4,2.64-0.82,5.41-1.26,8.3h0.4 c2.57-8.68,5.26-15.36,8.05-20.05c2.79-4.69,5.63-7.95,8.52-9.8c2.88-1.84,5.75-2.77,8.59-2.77c2.66,0,4.88,0.77,6.66,2.32 c1.77,1.55,2.66,3.67,2.66,6.36c0,1.79-0.55,3.44-1.66,4.94s-2.6,2.24-4.46,2.24c-1.6,0-2.97-0.55-4.13-1.65 c-1.15-1.1-1.82-2.64-2-4.64c-2.49-0.6-4.9,0.3-7.25,2.69c-2.35,2.39-4.57,5.81-6.66,10.25c-2.09,4.44-3.91,9.4-5.46,14.89 c-1.55,5.49-2.77,11.07-3.66,16.75c-0.89,5.69-1.33,10.97-1.33,15.86c0,1.5,0.02,2.62,0.07,3.37c0.04,0.75,0.11,1.77,0.2,3.07 L909.9,1696.53L909.9,1696.53z"/><path d="M1027.97,1698.17l-20.1-79.74c-1.33-5.29-2.38-9.45-3.13-12.49s-1.26-5.66-1.53-7.85c-1.24,0.1-2.49,0.15-3.73,0.15 s-2.49,0.05-3.73,0.15l0.27-6.58h31.95l-0.27,4.94c-5.15,0.3-8.3,1.6-9.45,3.89c-1.15,2.29-1.15,6.43,0,12.42l8.52,34.86 c1.07,4.49,2.13,8.75,3.2,12.79s2.17,8.4,3.33,13.09h0.27c0.53-1.7,1.13-3.52,1.8-5.46s1.31-3.86,1.93-5.76 c0.62-1.89,1.2-3.67,1.73-5.31c0.53-1.65,0.97-2.97,1.33-3.96l20.23-61.79h3.59l13.84,56.4c1.15,4.49,2.28,8.98,3.39,13.46 c1.11,4.49,2.2,9.08,3.26,13.76h0.27c0.98-2.89,2.06-6.01,3.26-9.35s2.37-6.76,3.53-10.25c2.4-7.48,4.44-13.71,6.12-18.7 s3.08-9.13,4.19-12.42s2.08-6.13,2.93-8.53c0.84-2.39,1.66-4.74,2.46-7.03c0.53-1.69,1.2-3.52,2-5.46 c0.8-1.95,1.64-3.76,2.53-5.46c-1.78,0.1-3.55,0.18-5.33,0.22c-1.78,0.05-3.55,0.13-5.33,0.22l0.27-6.58h27.02l-0.27,4.94 c-2.22,0.3-4.11,0.77-5.66,1.42s-2.91,1.72-4.06,3.22c-1.16,1.5-2.33,3.64-3.53,6.43c-1.2,2.79-2.6,6.48-4.19,11.07l-27.69,79.29 h-3.46l-15.18-58.94c-1.33-5.18-2.38-9.42-3.13-12.72c-0.75-3.29-1.49-6.43-2.2-9.42h-0.53c-1.15,3.29-2.26,6.58-3.33,9.87 c-1.06,3.29-2.17,6.58-3.33,9.87l-20.63,61.34L1027.97,1698.17L1027.97,1698.17z"/><path d="M1140.99,1620.08c3.73,0,6.52,1.42,8.39,4.26c1.86,2.84,2.8,6.61,2.8,11.29c0,2.99-0.25,6.41-0.73,10.25 c-0.49,3.84-1.09,7.96-1.8,12.34c-0.71,4.39-1.31,8.8-1.8,13.24s-0.73,8.75-0.73,12.94c0,2,0.33,3.54,1,4.64s1.71,1.65,3.13,1.65 c1.51,0,3.17-1.1,4.99-3.29c1.82-2.19,3.39-5.93,4.73-11.22l3.73,0.9c-0.36,2.09-0.95,4.36-1.8,6.81 c-0.84,2.45-1.93,4.74-3.26,6.88c-1.33,2.15-2.95,3.92-4.86,5.31c-1.91,1.4-4.11,2.09-6.59,2.09c-4.08,0-7.1-1.2-9.05-3.59 c-1.95-2.39-2.93-5.88-2.93-10.47c0-4.39,0.27-8.65,0.8-12.79s1.13-8.23,1.8-12.27s1.26-8.1,1.8-12.19 c0.53-4.09,0.8-8.28,0.8-12.57c0-1.29-0.25-2.74-0.73-4.34c-0.49-1.59-1.49-2.39-3-2.39c-1.42,0-3.06,1.1-4.93,3.29 c-1.86,2.19-3.46,5.93-4.79,11.22l-3.73-0.9c0.27-1.79,0.8-3.86,1.6-6.21c0.8-2.34,1.88-4.66,3.26-6.96 c1.38-2.29,3.04-4.19,4.99-5.68C1136.02,1620.83,1138.33,1620.08,1140.99,1620.08z M1148.58,1587.77c2.04,0,3.73,0.77,5.06,2.32 c1.33,1.55,2,3.62,2,6.21c0,2.49-0.71,4.51-2.13,6.06s-3.11,2.32-5.06,2.32c-1.95,0-3.62-0.77-4.99-2.32 c-1.38-1.54-2.06-3.56-2.06-6.06c0-2.59,0.71-4.66,2.13-6.21C1144.94,1588.54,1146.63,1587.77,1148.58,1587.77z"/><path d="M1217.54,1698.17c-3.37,0-6.19-1.55-8.45-4.64s-4.55-8.08-6.86-14.96c-1.69-4.99-3.2-8.58-4.53-10.77 c-1.33-2.19-3.28-3.34-5.86-3.44c-0.62,0-1.2,0.03-1.73,0.07c-0.53,0.05-1.11,0.08-1.73,0.08c-0.98,4.09-1.75,8.2-2.33,12.34 s-0.87,8.06-0.87,11.74c0,1.5,0.02,2.87,0.07,4.11c0.04,1.25,0.11,2.52,0.2,3.81h-10.92c-0.09-0.7-0.13-1.32-0.13-1.87 s0-1.22,0-2.02c0-2.79,0.13-6.96,0.4-12.49c0.27-5.54,0.62-11.84,1.06-18.92c0.44-7.08,0.93-14.36,1.46-21.84 c0.53-7.48,1.13-14.59,1.8-21.32s1.31-12.44,1.93-17.13c0.35-2.59,0.6-4.24,0.73-4.94s0.29-1.7,0.47-2.99 c-1.51,0.1-3.06,0.2-4.66,0.3c-1.6,0.1-3.15,0.2-4.66,0.3l0.53-5.98c3.9,0,6.94-0.2,9.12-0.6c2.17-0.4,3.79-0.9,4.86-1.5 c1.06-0.6,1.95-1.25,2.66-1.94h3.86c-0.44,2.49-0.87,5.29-1.26,8.38c-0.4,3.09-0.78,6.13-1.13,9.13 c-0.36,2.99-0.67,5.64-0.93,7.93c-0.8,6.98-1.53,14.26-2.2,21.84c-0.67,7.58-1.22,15.11-1.66,22.59h0.4 c2.66-8.88,5.39-15.71,8.19-20.5c2.79-4.79,5.7-8.13,8.72-10.02s6.08-2.84,9.19-2.84s5.59,0.77,7.46,2.32 c1.86,1.55,3.24,3.57,4.13,6.06c0.89,2.49,1.33,5.09,1.33,7.78c0,3.49-0.93,7.13-2.8,10.92c-1.86,3.79-4.68,7.16-8.45,10.1 c-3.77,2.94-8.59,5.01-14.44,6.21v0.15c3.11,0.1,5.48,0.92,7.12,2.47c1.64,1.55,3.17,4.21,4.59,8c0.98,2.3,1.93,4.64,2.86,7.03 c0.93,2.39,1.93,4.39,3,5.98c1.06,1.6,2.22,2.49,3.46,2.69c1.51,0.1,2.79-0.5,3.86-1.79s2-3.79,2.8-7.48l3.73,0.75 c-0.53,2.79-1.4,5.49-2.6,8.08s-2.77,4.71-4.73,6.36C1222.64,1697.35,1220.29,1698.17,1217.54,1698.17z M1189.45,1660.17 c8.43,0,14.86-2.04,19.3-6.13c4.44-4.09,6.66-9.92,6.66-17.5c0-1.29-0.13-2.69-0.4-4.19s-0.84-2.79-1.73-3.89 s-2.26-1.55-4.13-1.35c-2.4,0.2-4.81,1.85-7.25,4.94s-4.73,7.11-6.86,12.04S1191.04,1654.39,1189.45,1660.17z"/><path d="M1253.34,1620.08c3.73,0,6.52,1.42,8.39,4.26c1.86,2.84,2.8,6.61,2.8,11.29c0,2.99-0.25,6.41-0.73,10.25 c-0.49,3.84-1.09,7.96-1.8,12.34c-0.71,4.39-1.31,8.8-1.8,13.24s-0.73,8.75-0.73,12.94c0,2,0.33,3.54,1,4.64s1.71,1.65,3.13,1.65 c1.51,0,3.17-1.1,4.99-3.29c1.82-2.19,3.39-5.93,4.73-11.22l3.73,0.9c-0.36,2.09-0.95,4.36-1.8,6.81 c-0.84,2.45-1.93,4.74-3.26,6.88c-1.33,2.15-2.95,3.92-4.86,5.31c-1.91,1.4-4.11,2.09-6.59,2.09c-4.08,0-7.1-1.2-9.05-3.59 c-1.95-2.39-2.93-5.88-2.93-10.47c0-4.39,0.27-8.65,0.8-12.79s1.13-8.23,1.8-12.27s1.26-8.1,1.8-12.19 c0.53-4.09,0.8-8.28,0.8-12.57c0-1.29-0.25-2.74-0.73-4.34c-0.49-1.59-1.49-2.39-3-2.39c-1.42,0-3.06,1.1-4.93,3.29 c-1.86,2.19-3.46,5.93-4.79,11.22l-3.73-0.9c0.27-1.79,0.8-3.86,1.6-6.21c0.8-2.34,1.88-4.66,3.26-6.96 c1.38-2.29,3.04-4.19,4.99-5.68C1248.37,1620.83,1250.68,1620.08,1253.34,1620.08z M1260.93,1587.77c2.04,0,3.73,0.77,5.06,2.32 c1.33,1.55,2,3.62,2,6.21c0,2.49-0.71,4.51-2.13,6.06s-3.11,2.32-5.06,2.32c-1.95,0-3.62-0.77-4.99-2.32 c-1.38-1.54-2.06-3.56-2.06-6.06c0-2.59,0.71-4.66,2.13-6.21C1257.29,1588.54,1258.98,1587.77,1260.93,1587.77z"/><path d="M1284.36,1734.68v-4.49c2.48,0,4.24-0.95,5.26-2.84c1.02-1.9,1.68-4.41,2-7.56c0.31-3.14,0.6-6.66,0.87-10.55 c0.62-8.58,1.26-16.88,1.93-24.91s1.29-15.36,1.86-21.99c0.58-6.63,1.04-12.29,1.4-16.98c0.35-4.69,0.53-7.98,0.53-9.87 c0-1.99-0.16-3.82-0.47-5.46c-0.31-1.65-1.35-2.47-3.13-2.47c-1.42,0-3.04,1.1-4.86,3.29c-1.82,2.19-3.39,5.93-4.73,11.22 l-3.86-0.9c0.27-1.79,0.82-3.86,1.66-6.21c0.84-2.34,1.97-4.66,3.39-6.96c1.42-2.29,3.15-4.19,5.19-5.68 c2.04-1.5,4.39-2.24,7.06-2.24c3.99,0,6.68,1.57,8.05,4.71c1.38,3.14,2.06,6.81,2.06,11c0,2.99-0.2,6.01-0.6,9.05 s-0.82,5.71-1.26,8h0.4c2.48-9.17,5.04-16.11,7.65-20.79c2.62-4.69,5.3-7.85,8.05-9.5s5.41-2.47,7.99-2.47 c4.08,0,7.45,1.32,10.12,3.96c2.66,2.64,4.64,6.16,5.92,10.55c1.29,4.39,1.93,9.23,1.93,14.51c0,9.67-1.49,18.2-4.46,25.58 s-7.37,13.14-13.18,17.28s-13.02,6.21-21.63,6.21c-1.15,0-2.24-0.05-3.26-0.15s-2.02-0.2-3-0.3c-0.45,7.58-0.78,13.44-1,17.58 s-0.4,7.18-0.53,9.13s-0.33,3.46-0.6,4.56c1.42-0.1,2.82-0.18,4.19-0.22c1.38-0.05,2.77-0.13,4.19-0.22v6.13H1284.36z M1311.78,1693.09c3.73,0,7.01-0.85,9.85-2.54c2.84-1.69,5.26-3.96,7.25-6.81s3.62-6.06,4.86-9.65s2.15-7.3,2.73-11.15 c0.58-3.84,0.87-7.55,0.87-11.14c0-4.59-0.27-8.75-0.8-12.49s-1.46-6.71-2.79-8.9c-1.33-2.19-3.24-3.29-5.72-3.29 c-2.4,0-4.79,1.45-7.19,4.34c-2.4,2.89-4.62,6.76-6.66,11.59c-2.04,4.84-3.86,10.2-5.46,16.08c-1.6,5.89-2.8,11.87-3.59,17.95 c-0.36,2.2-0.65,4.46-0.87,6.81c-0.22,2.34-0.42,4.81-0.6,7.41c1.42,0.5,2.77,0.92,4.06,1.27 C1309.01,1692.91,1310.36,1693.09,1311.78,1693.09z"/><path d="M1392.32,1620.08c3.2,0,6.21,0.55,9.05,1.65c2.84,1.1,5.15,2.89,6.92,5.39c1.77,2.49,2.66,5.89,2.66,10.17 c0,4.09-1.24,7.63-3.73,10.62s-5.72,5.46-9.72,7.41c-3.99,1.94-8.25,3.52-12.78,4.71c-4.53,1.2-8.88,2.05-13.05,2.54 c0,6.19,0.55,11.37,1.66,15.56c1.11,4.19,2.77,7.33,4.99,9.42c2.22,2.09,5.06,3.14,8.52,3.14c2.57,0,5.17-0.65,7.79-1.95 c2.62-1.29,5.13-3.27,7.52-5.91c2.4-2.64,4.57-6.06,6.52-10.25l4.39,2.84c-2.49,5.19-5.15,9.48-7.99,12.87s-5.95,5.89-9.32,7.48 s-7.1,2.39-11.18,2.39c-8.43,0-14.64-2.97-18.64-8.9c-3.99-5.93-5.99-13.74-5.99-23.41c0-5.78,0.67-11.42,2-16.91 c1.33-5.48,3.33-10.4,5.99-14.74s6.03-7.78,10.12-10.32C1382.16,1621.35,1386.91,1620.08,1392.32,1620.08z M1390.46,1625.17 c-4.08,0-7.43,1.55-10.05,4.64s-4.62,7.08-5.99,11.97c-1.38,4.89-2.24,10.02-2.6,15.41c4.7-0.7,9.19-1.94,13.45-3.74 s7.76-4.11,10.52-6.96c2.75-2.84,4.13-6.16,4.13-9.95c0-3.19-0.78-5.88-2.33-8.08 C1396.03,1626.27,1393.65,1625.17,1390.46,1625.17z"/><path d="M1441.31,1698.17c-4.08,0-7.46-1.27-10.12-3.81s-4.64-5.98-5.92-10.32c-1.29-4.34-1.93-9.1-1.93-14.29 c0-9.77,1.44-18.38,4.33-25.81c2.88-7.43,7.21-13.26,12.98-17.5s12.91-6.36,21.43-6.36c1.33,0,2.62,0.05,3.86,0.15 s2.44,0.25,3.59,0.45c0.35-3.59,0.73-7.21,1.13-10.85s0.8-6.98,1.2-10.02c0.4-3.04,0.78-5.31,1.13-6.81 c-1.6,0.1-3.22,0.2-4.86,0.3c-1.64,0.1-3.26,0.2-4.86,0.3l0.53-5.98c3.9,0,6.94-0.2,9.12-0.6c2.17-0.4,3.84-0.9,4.99-1.5 s2.08-1.25,2.79-1.94h3.86c-0.8,5.39-1.62,11.94-2.46,19.67c-0.84,7.73-1.89,17.53-3.13,29.4c-0.62,6.38-1.22,12.74-1.8,19.07 c-0.58,6.33-1.07,12.19-1.46,17.58s-0.6,9.87-0.6,13.46c0,1.9,0.18,3.69,0.53,5.39c0.35,1.7,1.38,2.54,3.06,2.54 c1.51,0,3.15-1.1,4.93-3.29c1.77-2.19,3.33-5.93,4.66-11.22l3.86,0.9c-0.27,1.79-0.82,3.87-1.66,6.21 c-0.84,2.34-1.98,4.66-3.39,6.96c-1.42,2.29-3.15,4.19-5.19,5.68c-2.04,1.5-4.39,2.24-7.06,2.24c-3.55,0-6.15-1.25-7.79-3.74 s-2.46-5.73-2.46-9.72c0-2.89,0.18-5.91,0.53-9.05s0.84-6.56,1.46-10.25h-0.4c-2.4,9.08-5.04,15.98-7.92,20.72 s-5.77,7.93-8.65,9.57C1446.74,1697.35,1443.97,1698.17,1441.31,1698.17z M1444.1,1691.14c2.84,0,5.66-1.79,8.45-5.39 c2.8-3.59,5.35-8.28,7.66-14.06s4.08-11.92,5.32-18.4c0.71-3.49,1.31-7.38,1.8-11.67s1-9.17,1.53-14.66 c-1.42-0.6-2.91-1-4.46-1.2c-1.55-0.2-3.08-0.3-4.59-0.3c-3.73,0-6.99,0.85-9.79,2.54c-2.79,1.7-5.17,3.99-7.12,6.88 s-3.53,6.13-4.73,9.72s-2.06,7.33-2.6,11.22s-0.8,7.68-0.8,11.37c0,6.78,0.69,12.47,2.06,17.05 C1438.22,1688.85,1440.64,1691.14,1444.1,1691.14z"/><path d="M1509.86,1620.08c3.73,0,6.52,1.42,8.39,4.26c1.86,2.84,2.8,6.61,2.8,11.29c0,2.99-0.25,6.41-0.73,10.25 c-0.49,3.84-1.09,7.96-1.8,12.34c-0.71,4.39-1.31,8.8-1.8,13.24s-0.73,8.75-0.73,12.94c0,2,0.33,3.54,1,4.64s1.71,1.65,3.13,1.65 c1.51,0,3.17-1.1,4.99-3.29c1.82-2.19,3.39-5.93,4.73-11.22l3.73,0.9c-0.36,2.09-0.95,4.36-1.8,6.81 c-0.84,2.45-1.93,4.74-3.26,6.88c-1.33,2.15-2.95,3.92-4.86,5.31c-1.91,1.4-4.11,2.09-6.59,2.09c-4.08,0-7.1-1.2-9.05-3.59 c-1.95-2.39-2.93-5.88-2.93-10.47c0-4.39,0.27-8.65,0.8-12.79s1.13-8.23,1.8-12.27s1.26-8.1,1.8-12.19 c0.53-4.09,0.8-8.28,0.8-12.57c0-1.29-0.25-2.74-0.73-4.34c-0.49-1.59-1.49-2.39-3-2.39c-1.42,0-3.06,1.1-4.93,3.29 c-1.86,2.19-3.46,5.93-4.79,11.22l-3.73-0.9c0.27-1.79,0.8-3.86,1.6-6.21c0.8-2.34,1.88-4.66,3.26-6.96 c1.38-2.29,3.04-4.19,4.99-5.68C1504.89,1620.83,1507.2,1620.08,1509.86,1620.08z M1517.45,1587.77c2.04,0,3.73,0.77,5.06,2.32 c1.33,1.55,2,3.62,2,6.21c0,2.49-0.71,4.51-2.13,6.06s-3.11,2.32-5.06,2.32c-1.95,0-3.62-0.77-4.99-2.32 c-1.38-1.54-2.06-3.56-2.06-6.06c0-2.59,0.71-4.66,2.13-6.21C1513.81,1588.54,1515.5,1587.77,1517.45,1587.77z"/><path d="M1579.09,1620.08c2.66,0,5.59,0.22,8.79,0.67c3.19,0.45,6.21,1.07,9.05,1.87c-0.71,5.98-1.4,11.94-2.06,17.88 c-0.67,5.94-1.29,11.57-1.86,16.91c-0.58,5.34-1.04,10.12-1.4,14.36s-0.53,7.55-0.53,9.95c0,2,0.13,3.99,0.4,5.98 c0.27,2,1.38,2.99,3.33,2.99c1.51,0,3.17-1.1,4.99-3.29c1.82-2.19,3.39-5.93,4.73-11.22l3.73,0.9c-0.27,1.79-0.82,3.87-1.66,6.21 c-0.84,2.34-1.98,4.66-3.39,6.96c-1.42,2.29-3.15,4.19-5.19,5.68c-2.04,1.5-4.39,2.24-7.06,2.24c-3.55,0-6.08-1.25-7.59-3.74 s-2.26-5.73-2.26-9.72c0-2.89,0.24-6.03,0.73-9.42s1.04-6.93,1.66-10.62h-0.4c-2.13,7.38-4.33,13.29-6.59,17.73 s-4.53,7.81-6.79,10.1c-2.26,2.29-4.46,3.81-6.59,4.56s-4.13,1.12-5.99,1.12c-4.79,0-8.81-1.99-12.05-5.98 s-4.86-10.67-4.86-20.05c0-6.98,0.8-13.61,2.4-19.9c1.6-6.28,4.01-11.84,7.26-16.68c3.24-4.84,7.3-8.63,12.18-11.37 C1566.93,1621.45,1572.61,1620.08,1579.09,1620.08z M1574.96,1625.47c-3.99,0-7.48,1.25-10.45,3.74s-5.44,5.86-7.39,10.1 c-1.95,4.24-3.39,8.98-4.33,14.21c-0.93,5.24-1.4,10.6-1.4,16.08c0,6.38,0.62,11.65,1.86,15.78c1.24,4.14,3.5,6.21,6.79,6.21 c2.4,0,4.81-1.35,7.25-4.04c2.44-2.69,4.73-6.31,6.86-10.85c2.13-4.54,4.04-9.62,5.72-15.26c1.68-5.63,3.02-11.39,3.99-17.28 c0.98-5.88,1.46-11.52,1.46-16.91c-1.33-0.6-2.88-1.05-4.66-1.35C1578.91,1625.62,1577,1625.47,1574.96,1625.47z"/></g><g><path d="M520.09,1534.26c-0.21,2.1-0.21,5.13-0.62,7.22v1.63c-1.04,1.4-2.28,2.8-3.11,4.43c-0.83,2.1-3.32,3.26-4.56,5.59 c-0.41,0.93-2.07,1.63-2.9,1.63c-1.24,0.23-1.66,0.93-1.87,1.63c-0.41,1.4-0.62,1.4-1.45,0.47l-0.41-0.47 c-1.66-2.33-1.87-2.56-3.52-1.63c-2.28,0.93-3.94-0.23-5.39-1.4c-1.45-0.93-2.49-2.1-3.73-3.26c-0.21-0.23-0.41-0.23-0.83,0 c-1.87,1.63-2.9,0-3.94-0.93l-4.98-7.69c-2.07-3.26-4.35-6.76-6.01-10.02c-1.66-2.8-3.32-5.59-5.18-8.39 c-1.04-2.1-2.07-3.73-3.52-5.36c-1.24-1.86-2.9-3.96-4.15-6.06c-2.49-3.49-5.18-6.99-7.46-10.72c-2.07-3.49-4.56-7.46-7.05-10.95 c-1.66-2.1-2.9-4.66-4.56-6.76c-0.62-0.47-1.24-0.93-2.28-0.7c-5.39,1.63-10.78,2.56-16.17,3.49l-5.18,0.7 c-2.28,0.23-2.69,0.23-2.69,2.56c-0.21,3.26,0,6.75-0.21,10.25c-0.83,5.13-1.66,10.95-2.28,16.77c0,1.17-0.21,2.1-0.21,3.73 c10.16-7.22,19.28-14.21,27.98-22.36c0.21,0,0.21,0.23,0.41,0.23c-1.87,2.79-4.56,5.82-6.43,8.39 c-3.32,4.89-6.63,9.55-9.95,13.98c-0.83,1.17-1.24,2.56-2.07,3.5c-2.9,3.26-5.8,6.52-8.91,9.78c-1.87,2.33-4.15,4.19-6.63,5.82 c-1.04,0.93-2.69,1.63-3.73,2.1c-0.21-0.23-0.21-0.93-0.21-0.93c-0.21-1.17-0.62-1.4-1.45-1.17c-1.66,0.47-3.32,0-5.39-0.93 c-0.83-1.17-1.87-1.17-2.69-1.63c-1.45-0.23-2.69-1.4-2.69-2.79c-0.21-0.47-0.21-0.93-0.21-1.4c0.21-7.45,0.21-14.68,0.21-21.9 c0.41-7.92,1.04-15.61,1.24-23.76c0.41-7.69,1.04-15.14,0.83-22.83c0.21-4.66,0-8.85,0.21-12.81c0-5.59-0.41-11.42-0.21-17.01 c0-2.56,0.21-5.36-0.21-7.92c-0.21-2.56-1.04-5.36-1.66-7.92c-0.62-2.1-1.24-3.26-1.66-4.89c2.49,0.23,4.98-0.93,7.46,0.23 c2.49,1.4,4.35,2.56,7.05,3.96c0.41,0.23,1.04,0.47,1.66,0.47c4.56,0.7,9.12,1.17,13.68,2.33c4.15,0.93,8.5,2.1,12.64,3.26 c2.07,0.7,4.15,0.7,6.63,0.93c1.45,0.93,1.87-0.93,2.69-1.63c3.32-5.13,6.63-10.48,10.36-15.61c3.32-4.66,6.84-8.85,9.95-13.75 c0.41-0.47,0.41-1.16,0.62-1.86c-0.62,0.23-1.66,0.47-2.28,0.47c-3.94,1.17-8.08,2.33-12.02,3.26 c-5.6,0.93-10.57,2.79-16.38,4.19c-1.66,0.23-3.52,0.23-5.18,0.47c-3.94,0.23-7.88,0.47-12.02,0.47 c-1.04,0.23-2.49-0.23-3.94-0.23c2.9,0,5.8,0.23,8.29,0c4.35-0.47,8.91-0.7,13.27-1.63c4.56-0.47,9.12-2.56,13.68-3.26 c4.77-0.93,9.54-2.56,13.89-3.49c1.24-0.23,2.69-1.4,3.73-2.1v-0.23c-0.41,0-1.04,0-1.66,0.23c-3.32,1.16-6.84,2.33-10.16,2.79 c-6.22,2.1-12.23,3.03-18.86,5.36c-3.11,0.7-6.22,0.7-9.54,0.7c-3.52,0.23-7.25,0-11.19,0.93c-3.73,0.47-6.43-0.93-9.95-1.86 c-1.87-0.7-4.15-1.63-5.8-3.03c-0.83-1.4-1.24-2.56-0.83-4.19h0.83c1.87,1.63,4.35,2.1,6.43,2.33c2.49,0,4.77-0.23,7.05-0.23 c7.05-1.4,13.68-3.96,20.73-5.59c5.39-1.63,10.78-3.96,15.96-5.59c4.56-1.86,8.91-3.03,13.68-3.49c3.73-1.4,7.46-1.17,10.99,0.23 c0.41,0.23,1.04,0,1.87,0c2.9-0.93,6.43-1.86,9.95-3.03c0.21,0,0.41,0,0.62-0.23c0.41,0,0.83-0.23,1.24-0.23 c2.49-0.93,4.77-0.93,6.63-0.47c2.9,0.7,3.32,0.93,2.9,3.96c0,3.26-1.04,6.29-2.9,8.62c-1.66,2.79-3.11,5.82-5.39,8.62 c-2.28,3.26-4.97,6.52-7.46,9.55l-5.39,5.82c-4.15,3.73-8.08,7.45-11.82,11.65c-1.66,1.4-3.32,3.03-5.8,4.66 c1.66,0.47,2.69,0.7,3.52,0.7l13.47,0.93c1.04,0,2.28,0.23,2.69,0.47c0.83,0,1.04,0.47,0.41,1.4c-0.83,1.63-2.28,3.26-3.94,5.13 c-0.41,0.47-1.87,0.7-3.11,0.93c-0.62,0.23-1.66,0.47-2.69,1.16c1.24,0,2.07-0.47,2.9-0.47c-1.04,0.47-2.28,0.93-3.94,1.4 c0.21-0.23,0.21-0.47,0.62-0.7l-0.41-0.23c-1.66,0.47-3.32,0.93-4.77,1.86l0.21,0.23c-1.45,0.7-2.69,1.17-4.35,1.63 c-1.04,0.7-3.11,0.93-4.35,1.4c-0.41,0.23-0.83,0-0.83,0c-0.41,0.7-0.83,0.93-1.45,1.17c-4.56,1.63-9.12,2.56-13.68,4.89 l-14.3,4.89c-0.41,0.23-1.04,0.23-1.66,0.23c0,1.63-1.45,1.16-2.49,1.63c-1.66,0-1.87,1.17-1.66,2.56 c0.21,1.4,0.21,3.26,0.21,5.13c0.21,2.56,0.21,5.36,0.41,8.15v8.85c6.63-1.63,12.44-4.89,19.07-7.92l-5.18-7.22 c-1.24-1.17-2.07-2.8-2.69-3.96c-0.62-1.63-1.04-2.8-1.66-4.19c0-0.7,0.41-1.4,0.41-2.33c1.45,0,2.49,0.47,3.32,0 c2.9-0.93,5.39-0.23,8.29,0.23c3.11,1.17,6.01,2.79,8.91,4.66c1.04,0.93,2.69,0.93,4.35,1.16l7.67,1.17 c1.45,0.23,2.9,0.23,4.35-0.23c1.87,0,3.94-0.23,6.01-0.23c2.9-0.23,5.8-0.23,8.71-0.23c2.07,0,3.73,0,5.8-0.47 c2.49-0.23,5.39-1.4,7.88-1.4c1.45,0,2.9,0.7,4.35,1.4c0.21,0,0.41,0.7,0.21,1.17c-1.45,1.86-2.49,3.73-3.94,6.29 c-0.83,0.47-1.45,0.93-1.66,1.4c-1.45,2.56-3.52,2.8-5.6,2.8h-6.01c0,0.23,0,0.47-0.41,0.93c2.49,0.23,4.77,0.7,7.05,0.93 c0,0.23-0.21,0.23-0.21,0.47c-6.43,0.23-12.85-0.47-19.49,1.4c10.16,10.72,24.25,27.49,32.75,40.3l7.67-35.88 c0.62-2.1,1.45-4.66,2.69-6.76c1.66-4.43,2.69-11.65,4.35-15.61c-0.21,3.5-0.21,10.72-0.21,14.21c0,3.73,0.41,6.52,0.83,10.25 C521.74,1523.08,521.33,1528.67,520.09,1534.26z M418.51,1446.2c1.87-0.93,3.73-1.4,5.18-2.56c3.32-2.56,7.26-4.66,10.99-7.22 c2.28-1.86,3.94-3.96,5.6-6.75c-10.36-3.96-20.52-7.92-31.3-10.95c2.07,2.8,4.15,5.59,5.39,8.15c1.04,2.33,1.87,5.36,2.07,7.92 c0.62,3.49,1.04,6.99,1.87,10.48C418.31,1445.74,418.31,1445.97,418.51,1446.2z M458.31,1465.07c-1.66-0.7-3.11-1.4-4.35-2.33 C456.66,1466,456.66,1466,458.31,1465.07z M480.91,1474.16c-4.56-2.33-8.71,0.23-13.06,0.93v0.47 C472.2,1475.09,476.56,1474.86,480.91,1474.16z M485.47,1375.38c-2.28,0.23-4.15,0.47-6.63,1.17v-0.93 C481.12,1375.38,483.19,1375.38,485.47,1375.38z"/><path d="M773.19,1529.13c-1.04,1.4-1.45,2.33-2.49,3.73c-0.62,0.93-1.45,1.4-2.07,2.79c-0.41,1.17-1.87,1.63-2.9,2.56 c-0.21,0-0.62,0.7-1.04,0.93c0,0.23-0.21,0.23-0.21,0.23c-2.69,1.17-5.18,3.03-7.67,4.19c-4.56,1.86-8.71,3.03-13.06,4.89 c-4.56,1.4-8.71,2.33-13.27,3.03c-5.39,0.47-11.4,0.47-16.58,0.23c-2.69,0-5.18-0.7-7.67-1.17h-0.41 c-2.28-1.4-4.77-2.1-7.25-3.96c-2.07-0.93-3.94-2.1-5.8-3.26c-2.49-1.4-3.52-4.19-3.94-6.99c-0.41-3.03-0.41-6.76-0.21-10.25 c0.21-6.06,1.66-11.88,2.9-17.24c3.52-12.58,8.29-24.46,13.27-36.34c1.87-4.43,2.9-7.92,3.52-12.35c0.41-1.63,0-3.49-0.41-5.13 c-0.21-2.1-2.49-2.79-4.77-1.4c-3.32,1.63-6.22,4.89-8.5,7.45c-3.52,4.19-6.84,8.62-10.36,12.81c-2.9,3.96-5.39,9.08-7.88,13.74 c-4.35,8.15-7.46,16.31-10.36,24.93c-1.04,2.8-2.28,4.89-3.94,7.22l-2.69,3.26l-1.66,1.17c-1.24,0-1.45,0.7-1.45,0.93 c0,0.47,0,0.7-0.21,0.93h-0.41v-0.93l0.41-0.93c-0.62-0.23-0.83-0.7-0.83-0.93c-0.62-0.23-0.83-0.47-1.24,0 c-1.45,1.17-3.11,0.93-4.35-0.47c-0.62-0.93-1.66-1.86-2.28-2.79c-0.41,0.23-0.41,0.7-0.41,1.63c0.21,6.99,0.41,14.44,0.41,21.67 c0,1.16,0,2.33-0.21,3.26c0,0.93-0.62,1.86-0.83,2.33c-1.24,1.63-1.87,2.79-2.9,3.49c-0.41,0.23-0.83,0.93-0.83,1.4 c-0.41,1.17-1.66,1.4-2.9,1.4c0,0.7,0,1.4-0.21,1.86c-0.62-0.23-1.24-0.47-2.07-0.93c-0.21-0.93-0.62-1.4-1.87-0.93 c-0.21,0-1.66-0.47-2.28-1.16c-0.62,0-0.83-0.23-1.04-0.47c-0.62-0.47-1.04-1.4-2.07-1.63c-0.83-0.23-1.45-0.47-2.28-1.17 c-5.39-5.36-9.12-11.42-13.06-17.94l-7.67-10.95c-0.83-1.17-1.87-1.86-2.69-3.03c-0.41,1.63-0.62,3.03-0.83,4.19 c-0.83,4.43-1.66,8.62-3.52,13.05c-1.24,2.33-2.69,5.36-4.77,7.45c-0.41,0-0.41,0.47-0.62,0.93c-1.04,1.17-1.66,1.86-2.69,2.1 c-0.41,0-1.04,0.7-1.04,0.93c-1.24,1.86-1.87,2.1-3.52,1.17c-1.87-0.47-3.94-1.4-5.8-2.33l-2.49-1.86 c-0.21,0-0.62-0.47-0.62-0.47c-1.45,0-2.28-1.17-3.11-1.86c-1.24-1.63-2.69-2.33-3.94-2.8c-0.41-0.23-0.41-0.7-0.83-0.93v-0.23 c0.83,0,1.66,0.23,1.87,0.23c1.45,0.23,2.49,0.7,3.73,0.93c1.04,0,2.07,0,2.28-1.17c0.83-2.1,1.45-4.66,2.07-6.99 c0.83-4.89,1.87-9.32,2.9-13.74c1.24-6.76,2.07-13.74,2.9-20.27c0.83-3.49,1.04-6.76,1.66-10.48c0,0,0-0.7,0.21-1.4l-3.94,1.86 c-2.28,1.4-4.56,3.03-7.05,3.73c-4.77,2.1-9.54,4.43-14.51,6.06c-2.07,1.16-4.35,1.4-6.63,1.86c-0.41,0-1.04,0-1.66-0.47 c-0.62,0-0.62-0.47,0.21-0.47c3.73-1.63,6.43-4.43,9.95-6.29c1.87-1.4,3.73-3.49,5.6-4.66c5.8-3.73,11.19-7.69,17.21-11.18 c1.87-1.17,2.49-2.56,2.69-3.96l2.49-17.94c0.83-5.36,2.28-11.18,3.32-16.54c0.21-4.19,0.62-7.92,1.45-11.88 c0.41-4.66,1.04-9.09,2.69-13.51c0-1.4,0.41-3.26,0.83-5.13c0-0.47-0.42-0.93-0.42-1.63h-0.41c-0.41,0.93-1.24,2.1-1.87,3.49 c-5.6,10.02-11.82,19.57-18.45,28.89c-2.69,3.49-5.8,6.76-9.54,9.55c-0.83,0.23-1.45,0.47-1.87,1.16 c-0.41,0.23-0.83,0.23-1.04,0.7v-0.7c0.41-0.7,1.04-0.93,1.87-1.16l-2.28-0.7v0.23c-0.41-0.23-0.62-0.47-0.83-0.47 c-1.45,0.47-2.9,0.93-3.94,0c-1.24-1.16-1.66-2.1-2.9-3.03h-0.21c-1.24,0.7-2.69,0-2.28-1.63c0-0.47,0.21-1.63,0.83-1.86 c5.6-3.73,9.33-9.32,12.85-14.44c4.15-5.82,8.08-11.42,11.82-17.01c3.52-4.89,6.84-10.02,10.16-14.68 c2.49-3.96,4.56-7.92,7.05-12.58c2.49-3.96,4.56-8.85,7.05-13.51c0.83-1.86,1.24-3.73,1.45-5.59v-2.33 c0.41,0,0.83,0.47,1.04,0.93c0.62,1.86,1.24,3.96,1.45,5.36c0.62,4.19,0,8.15-0.62,11.65c-1.45,8.85-4.77,17.24-8.5,25.63 c-0.21,0-0.21,0.23-0.41,0.7c2.69,0,3.94,2.33,6.01,3.96c3.11,3.26,4.15,6.52,4.98,10.95c0.21,1.86,0.41,2.8,0.41,4.66 c0.41,0.7,0.41,2.1,0.41,3.03l0.62,12.58c0.21,0.93,0.21,1.16,1.45,0.93c0.41,0,0.62,0,1.04,0.7c2.9,4.43,4.15,9.55,5.39,14.68 c0.41,1.17,0.83,2.33,1.04,3.49c1.45-0.23,3.32-0.23,4.77-1.17c0.42,0,0.42-0.23,0.42-0.47c0.21-2.56,0.21-4.89,0.21-7.22 c0.21-6.29,0.41-12.58,0.83-18.87v-3.73c0-1.4,0.21-2.79,0.83-3.73c0.83-0.93,1.04-2.33,0.83-3.73 c-1.24-3.03-1.66-5.82-2.69-8.62c-0.62-1.86-2.49-2.1-3.73-0.7c-1.45,1.17-2.49,2.56-3.73,3.73c-1.66,2.1-3.73,4.19-5.6,6.29 c0.83-1.16,1.24-2.1,1.66-2.56l5.6-7.45c1.45-2.33,2.9-2.33,4.77-2.33h0.62c1.87-0.47,3.11,0.47,4.15,2.33 c1.87,2.56,3.73,5.36,5.39,8.39c0.83,1.63,1.87,2.33,2.9,3.73c0.62,0.7,1.04,1.17,1.04,1.86l1.87,22.13c0,2.33,0,3.73,0.21,5.59 c0,1.63,0,1.63,1.24,1.63c1.24,0.47,2.69,0.47,3.73,0.7c0.41,0.23,0.83,0.47,0.41,1.4c-0.62,1.4-1.45,2.56-2.9,3.5 c-0.62,0.93-1.45,1.86-1.66,2.79c-0.41,0.23-0.41,0.7-0.41,1.17c0.41,4.66,0.62,9.78,0.62,15.38l1.24,20.03 c0.21,4.19,1.04,8.39,1.45,12.11l0.83-1.4c2.49-7.45,5.6-14.68,8.08-22.13l7.88-18.17c3.32-7.92,6.84-15.38,10.99-22.36 l3.73-6.99c0,0,0.21,0,0.41-0.93c-0.41,0.23-0.83,0.7-1.45,0.7c-2.07,1.4-4.77,2.8-7.26,3.96l-10.78,4.66 c-1.45,0.7-3.32,1.17-4.56,1.63c0.21-0.23,0.62-0.47,1.04-0.7h-1.24c-2.49,0.23-3.94,0.47-6.01,0.47c-0.41,0-0.62-0.47-0.83-0.47 c-0.21-0.23-0.62-0.23-0.83-0.93c-0.41-0.47-1.24-0.7-1.24-0.93c0-0.23,0.41-0.7,1.04-0.93c4.15-2.33,7.67-5.82,10.16-9.55 l9.74-11.65c1.87-3.49,4.56-6.29,5.6-9.78c1.24-1.86,1.45-3.96,0.62-6.06c-0.62-1.17-1.04-2.56-1.04-3.73 c0-2.79-0.62-5.82-2.28-8.39c-2.28-2.56-4.56-5.13-6.22-7.69c-1.66-2.1-3.11-4.43-4.56-6.99c-0.41-0.7-0.83-1.63-1.87-2.33 c0.21,0,0.21,0,0.21-0.23c1.24,0.47,1.66,0.47,2.49,0.93c3.52,2.56,7.46,4.19,11.61,5.82c4.35,1.4,8.29,3.49,12.23,6.29 c3.94,2.56,5.18,6.76,5.18,10.72c0,1.17-0.21,2.1-0.62,2.56c-1.24,1.86-2.69,4.43-4.15,6.06c-0.62,0.7-1.87,1.86-3.52,2.33 c-2.9,0.93-4.77,3.26-6.84,5.36c-3.52,3.26-6.43,6.76-9.74,10.48c-3.32,3.26-6.84,7.45-9.54,10.48c-0.41,0.23-0.62,0.7-0.83,1.4 h0.21c2.28-1.4,4.35-2.8,6.43-4.19c7.05-4.19,13.68-7.92,20.73-11.65c2.69-2.1,6.01-2.56,9.12-3.03l3.52-0.7 c0.83,0,1.66,0,1.66,0.7h0.21c0.62,0.23,1.87,0.93,3.32,0.47c0.83-0.7,2.49-0.93,3.73-1.4c0-0.47,0-0.47-0.21-0.93v-0.23h2.07 c0.21,0,0.41,1.16,0.41,1.4l-2.28,2.79c-1.24,2.1-3.32,3.03-5.18,4.89c-0.62,0.93-1.24,1.86-1.45,3.26 c-2.28,6.76-4.77,13.28-7.05,20.5c-1.04,2.33-1.45,4.89-2.9,7.22v1.4c1.66-2.1,2.69-3.49,4.15-4.89 c1.87-1.86,4.35-3.73,6.01-6.06c2.69-2.1,5.18-2.79,8.08-2.33c0.83,0.23,2.07,0,3.32-0.47c3.52-0.23,6.22,0,8.91,2.56 c3.32,3.73,6.22,7.69,6.63,13.04c0,2.56-0.41,4.89-1.24,7.46l-8.08,25.86c-1.24,3.96-2.07,7.69-2.49,12.11 c-1.04,6.52-0.62,13.04,0,20.03c0,0.93,0.21,3.03,1.04,3.96c0.41,2.1,2.07,3.03,3.94,3.73c2.69,0.23,5.6,0.47,8.08,0.93 c5.6,0.47,10.36-1.63,15.13-3.03c4.35-1.63,7.88-3.03,12.44-4.66c0.21,0,0.41-0.23,0.62-0.47c-0.62-0.7-1.04-1.63-1.45-2.56 c-2.28-3.73-3.73-7.92-4.56-11.65c-1.24-5.36-2.49-10.48-3.73-15.14c-0.83-4.66-1.45-8.85-2.9-13.74 c-1.04-4.66-1.04-9.78-1.04-14.68l-0.21-4.19c0.21-2.56,0.21-5.13,0.62-7.92h0.21c0.21,0.23,0.41,0.47,0.41,0.7 c2.28,7.45,4.15,14.68,6.63,21.43c3.94,10.48,10.16,19.8,18.45,27.72c1.45,0.93,2.49,2.56,4.15,3.49 c0.21,1.17,0.41,1.63,0.83,2.1c0.62,3.03,2.07,6.29,4.15,9.32C774.22,1526.57,773.6,1527.97,773.19,1529.13z M589.94,1547.54 c-3.73-0.93-3.52-1.16-4.35,0c0.62,0.7,1.87,0.93,2.49,1.17C589.11,1548.94,589.74,1548.7,589.94,1547.54z M628.71,1530.53 c-0.62-10.48-1.24-20.5-1.45-30.75c-0.41-10.02-0.21-20.5-0.41-30.52c-0.41,0.23-1.24,0.47-1.87,0.47 c-1.04,0-1.24,0.23-1.04,0.93c0,1.63,0.21,3.03,0.21,4.19c0.62,5.82,0.83,10.72,0,16.31c-0.41,4.89-2.28,9.32-4.98,13.51 c-0.83,0.7-1.87,0.93-2.69,0c-1.66-2.1-3.52-4.66-3.73-7.92c-0.41-2.33-1.24-4.43-1.24-6.52c-0.41-4.89,0-9.55,0.41-14.44 c0-0.23-0.41-0.47-0.41-0.93c-0.41,0.93-0.41,2.1-0.83,3.03c-0.62,4.19-1.04,8.85-1.87,13.04c-0.62,5.13-1.45,10.25-2.07,14.91 c-0.41,3.96-1.04,6.76-1.66,10.25c-0.21,0.7,0,0.7,1.04,1.4c1.87,0.93,3.73,1.63,5.8,2.56c4.35,2.56,8.91,5.13,13.06,8.15 C626.43,1528.9,627.46,1529.6,628.71,1530.53z M614.4,1420.58l-0.41,0.23C614.2,1420.58,614.2,1420.58,614.4,1420.58z M623.73,1469.03c0,0.23,0.21,0.23,0.21,0.47c1.04-0.23,2.07-0.7,3.11-1.4c0,0,0-0.23-0.21-0.47 C626.01,1468.1,624.98,1468.1,623.73,1469.03z M637.41,1554.76h-0.21l1.66,1.86C639.28,1554.76,638.24,1554.99,637.41,1554.76z M762.62,1539.38c-18.03,9.32-37.1,12.35-57.21,9.78v0.23c1.04,0.47,1.87,1.16,2.69,1.16l8.71,0.93 c7.05,0.23,13.68-0.23,20.73-2.33c8.29-1.86,16.38-4.66,24.25-8.62l1.04-0.93L762.62,1539.38z"/><path d="M842.84,1451.56c1.24,0.7,2.49,0.7,3.94,1.86c6.63,3.5,13.47,6.99,20.52,11.18c5.8,3.49,10.78,8.39,15.96,13.28 c0,0.23,0.21,0.47,0.62,0.47c-0.42-5.36-0.83-10.72-1.45-15.84h0.21l1.66,5.13c2.28,3.03,3.94,6.99,6.01,10.02 c2.7,5.36,5.8,10.72,9.12,15.84c0.21,0.93,0.41,1.4,0.41,1.86c1.24,3.26,3.52,5.59,5.6,8.15c5.8,6.29,10.16,13.74,14.1,21.9 c0.62,1.17,0.41,2.1,0,2.8c-0.42,1.4-1.04,3.03-1.87,3.96c-0.21,0.7-0.21,0.93-0.21,1.17c-0.41,0.47-0.62,0.93-0.83,0.93 c-1.45,1.4-1.45,3.03-2.28,4.19c-0.41,1.4-2.69,2.1-3.11,1.4c-0.41-0.23-0.83,0-1.45,0c0.42,0.7,0.62,1.63,1.04,2.1 c0,0,0.21,0.47,0.21,1.17c-0.42-0.7-0.62-0.7-1.04-0.7l-1.87-3.03h-0.21c-0.62,0-1.24,1.17-2.28,1.17 c-0.83,0-1.66-1.17-2.28-1.17c-0.62-0.93-1.24-2.1-2.28-3.03c-0.83-0.47-1.04-1.63-1.45-2.79c-0.21,0.23-0.21,0.47-0.21,0.47 c-0.21,0.7-0.42,1.4-1.04,1.63c-0.21,0-0.83-0.23-1.24-0.47c-1.87-4.66-4.15-9.32-6.63-13.51c-1.87-2.33-3.52-4.89-5.18-6.52 l-18.03-20.97c-5.6-6.06-10.78-11.88-16.17-17.24c-2.28-2.1-3.73-4.66-5.8-7.46c-2.28-2.33-4.98-4.89-7.25-7.92 c-1.24,2.1-1.66,3.26-2.49,4.89c-5.18,9.32-10.36,19.57-15.75,29.35c-4.77,8.85-10.16,19.33-15.13,27.72 c-2.49,3.96-5.6,6.99-8.71,10.25c-1.45,2.1-3.52,1.63-5.39,1.4c-1.66,0-2.9-0.47-3.94-2.1c0-0.23-0.62-0.23-1.24-0.93 c-2.28-0.23-4.35-0.93-6.22-3.03c-0.41-0.93-1.04-1.4-2.07-1.4c-2.28-0.7-5.18-4.43-4.15-8.39c1.04-3.73,2.49-9.55,4.35-13.51 c1.04-1.16,1.24-3.26,2.07-5.13c0.21-1.16,0.21-2.56,0.83-3.96c0.21,2.8,0.83,5.13,2.07,7.69l1.04,1.17 c1.87,1.4,3.94,3.03,5.8,4.19l2.49-3.26c3.94-6.76,8.08-13.28,11.61-20.73c4.35-6.75,7.88-14.44,11.61-22.13 c2.69-4.66,4.98-9.78,7.67-14.91c0.41-0.93,0-1.16-0.62-1.86c-2.07-0.93-4.15-2.1-6.84-2.79h8.71c0.21,0,0.83-0.23,0.83-0.7 c2.07-4.19,3.73-8.62,5.8-12.58c2.49-5.13,5.18-10.95,7.26-16.07c3.52-7.22,6.22-13.98,7.67-21.43c1.04-2.33,1.45-4.89,1.87-7.22 c0.21-0.93,0-1.4-1.04-1.4c-1.45-0.23-2.69-1.17-3.73-1.17c1.24-0.47,2.9-0.47,4.77-0.47c1.04,0,1.87-0.47,2.9,0 c2.69,1.17,4.56,3.03,5.8,6.29c1.66,4.43,2.07,9.55,1.04,14.44c-0.41,4.43-0.83,8.85-1.66,13.05c-0.41,6.75-3.52,12.81-6.22,19.1 C847.4,1441.08,844.91,1446.2,842.84,1451.56z M796.41,1531.93c-3.11,1.16-5.8-0.23-8.91,1.16 C789.15,1535.19,794.33,1534.73,796.41,1531.93z"/><path d="M1064.85,1473.92l-1.24-2.1c-0.83-1.4-1.66-2.1-2.69-2.56c-2.07-1.17-3.73-2.33-5.18-2.8c0-0.23-0.21-0.23-0.62-0.23 v2.56c0.83,10.95,0.21,21.9,0,32.61c-0.21,4.19-1.66,7.69-4.15,10.95c-1.45,1.86-3.52,3.49-4.77,5.82 c-0.41,0.93-1.45,1.63-2.69,2.1l-1.24,0.7c0,0.47-0.41,0.93-0.83,1.63c-0.21-0.93-0.83-1.4-1.24-1.86c0.21,0,0.21-0.23,0.42-0.23 c0.42,0,0.42,0.23,0.62,0.23l0.62-0.7c-0.21,0-0.62-0.23-0.62-0.23c-0.83,0.23-1.24,0-1.66-0.93c0-0.23-0.62-0.47-0.83-0.47 c-0.42,0.47-1.24,0.47-1.66,0.7c-1.66,0.93-3.11,0-3.94-1.17c-1.24-1.17-2.28-2.56-3.32-3.96h-0.62c-1.24,0.93-1.87,0-2.49-0.47 c-2.28-2.8-2.28-5.82-1.24-9.09c1.04-1.86,2.28-3.96,2.28-6.06v-4.66c-0.42,0-0.83,0.47-1.24,0.7c-2.7,3.03-6.01,5.59-9.95,7.69 c-1.04,0.23-2.28,0.47-3.11,0.23c-0.62-0.47-1.04,0-1.66,0.47c-0.83,1.86-1.66,3.5-2.9,4.89c-1.24,1.4-2.07,3.49-3.73,4.89h-0.42 c-1.04,0-1.66,0.47-1.66,1.4h-0.21c-0.21-0.23-0.42-0.23-0.42-0.47c0-1.4-0.62-2.33-2.28-1.4c-1.66,0.7-2.9,0.23-3.73-1.4 c-0.62-0.7-1.45-0.93-2.28-2.1h-0.41c-2.07,0-3.32-1.4-3.52-3.49c0.21-3.73,0.21-7.22,0.21-10.72v-4.43 c0.62-4.66,0.83-8.62,1.45-13.04c0.21-2.8,0.41-5.59,0.83-8.15l1.87-10.02v-1.17l-1.04,1.4c-3.94,5.36-8.08,10.25-13.68,13.74 c-0.62,1.17-1.45,1.86-2.49,2.1c-0.42,0.23-1.04,0.23-1.45,0.23v-0.23l1.87-0.93v-0.23c-3.52,0-6.63,0-9.95-0.47 c0.83-0.93-0.42-1.63-1.24-2.56c-0.41-0.23-0.83-0.93-1.45-1.63c-1.24-1.4-0.62-3.03,0-4.43c1.24-3.26,3.32-6.76,5.39-9.78 c3.52-4.43,6.63-8.62,9.74-13.51c3.52-4.66,7.05-9.78,10.57-14.91l6.22-10.25c2.49-4.89,4.77-10.02,7.67-14.91 c1.04-2.33,1.87-5.36,2.69-8.15c0.62-1.17,1.24-3.26,1.66-4.89c0.21-1.16-0.21-2.33-1.45-3.26l-0.42,2.33 c-0.21-0.93-0.21-1.63-0.41-1.86c-0.42-1.17,0.21-1.63,1.24-1.86c2.07,0,3.94,1.17,4.98,3.26c0.83,1.86,2.07,3.73,2.9,5.82 c1.66,4.43,2.28,9.55,1.66,14.21c-0.83,5.13-1.87,9.78-3.52,14.91c-2.9,8.85-7.05,16.77-12.23,24.46c-0.21,0.93,0,1.17,0.83,2.1 c1.04,0.7,1.87,1.63,2.49,2.56c0.62,0.47,1.04,0.47,1.45-0.7c1.66-3.03,3.11-6.52,5.39-10.02c1.24-2.1,2.49-3.73,4.15-5.82 c2.07-2.33,4.97-3.5,7.88-3.96c1.24-0.47,2.07-0.7,3.11-0.7c1.24,0.7,2.28,1.16,3.11,1.4c0.62,0.23,1.45,0.7,1.87,0.47 c2.9-1.63,6.01-1.86,9.12-1.86c1.87-0.23,3.32,0,4.56,1.86l0.62,1.4l0.62-0.7l0.21-1.4c0.21-2.56,0.21-5.13,0.42-8.15 c0.21-1.4,1.24-3.26,1.45-4.89c1.04-3.96,2.07-7.46,2.9-11.42c0.62-2.1,1.04-4.19,1.87-6.29c0.62-2.56,1.24-4.43,1.87-6.76 c0.21-0.47,0.83-0.7,1.24-0.7c1.45,0,2.28-0.47,3.32-0.47c0.83-0.23,1.24,0,1.45,0.93c0.83,2.56,1.87,4.89,2.7,7.92l1.87,12.35 c0.21,5.13,0.83,10.25,1.04,15.38c0,1.63-0.21,1.63,1.24,0.93c2.49-0.47,4.77-1.17,7.05-1.86c3.73-1.16,7.67-1.63,11.61-1.86 c6.22,0,12.85,0,19.49-0.23c1.66,0,3.52,0.93,4.56,2.56c1.87,2.8,2.9,6.06,3.73,9.32c1.45,7.69,2.07,15.84,1.24,23.53 c-0.21,3.73-0.83,7.69-1.45,11.65c-0.62,2.33-1.04,4.89-1.66,7.22c-0.62,2.79-1.24,5.82-2.7,8.39c-1.04,3.5-2.07,6.52-3.32,9.55 c-1.87,5.36-4.35,10.48-6.84,15.84c-1.04,2.1-2.28,4.19-3.73,5.59c-0.62,1.86-1.87,3.03-3.52,4.66l-0.83,0.47 c-0.41,0.7-1.45,1.4-2.07,1.86c-1.04,1.16-1.66,1.4-2.28,0.23l-0.42-0.47c-0.62-1.17-1.45-1.86-2.9-1.63 c-1.66,0.7-3.11-0.47-3.94-1.4l-1.87-2.1c-0.42,0-1.04-0.47-1.24-0.47c-1.66,0-2.69-1.17-3.52-2.1c-1.45-2.8-1.24-5.59-1.24-8.62 c0-3.49,0.21-6.99,0-10.25s-0.83-6.06-1.87-8.39c-0.42-3.03-1.24-5.82-2.49-8.62c-0.83-2.56-1.87-5.13-3.32-7.92 C1064.85,1474.39,1064.85,1474.16,1064.85,1473.92c0.21,0.23,0.42,0.23,0.42,0.47c2.49,3.73,4.77,7.69,7.05,11.65 c2.49,4.89,5.8,9.78,9.74,13.98l2.7,2.33c3.73-9.32,6.63-18.17,8.71-27.72c-1.04,0.23-1.87,0.93-2.9,1.17 c-0.62,0.47-1.04,0-1.45,0c-0.62-0.93-2.28-0.93-3.52,0c1.45,0.47,2.9,1.17,3.73,1.63c0.21,0.47-0.21,0.7-0.62,0.47 c-0.42,0-1.04-0.23-1.66-0.7c-2.49-0.7-4.35-1.86-6.43-2.33l-10.99-2.1c-1.04,0-1.87-0.47-2.49-0.7 c-0.21-0.23-0.21-0.7-0.42-0.93c-1.04-0.47-1.87-0.47-2.9-0.47C1064.43,1472.06,1064.64,1472.99,1064.85,1473.92z M1018.83,1487.2h0.83c2.28-1.17,4.77-1.86,6.84-2.33c1.24-0.23,1.45-0.47,1.45-1.63c0-4.43,0.41-9.32,0.41-13.98 c0.21-8.15,0.21-15.84,0.21-24.23c0-1.63,0.21-3.49,0.41-5.13c0-0.7-0.21-1.17-0.41-1.4c-0.21-0.23-1.04-0.23-1.45,0 c-0.62,0.23-1.04,0.47-1.66,1.17c-6.01,3.49-11.19,7.22-14.51,13.05c-1.45,1.86-3.11,3.73-1.87,6.52 c0.62,1.17,0.62,1.17,1.87,0.7c2.69-0.93,5.18-1.17,7.88-0.93c0.42,0.23,1.04,0.23,1.45,0h3.94c1.87-0.23,3.52,0.93,3.52,3.49 c-0.42,5.36-2.28,10.48-4.56,15.61C1021.73,1480.91,1020.49,1484.17,1018.83,1487.2z M1012.4,1483.01v4.66 c0.21,0,0.21,0,0.41,0.23c0.21-0.7,0.62-0.7,0.83-1.4c2.7-4.43,5.39-9.08,7.05-14.21c0.83-2.56,1.04-4.89,0.62-7.22 c-0.62-2.33-1.45-2.56-3.52-2.1c-2.07,0.47-3.94,0.93-5.8,1.63c-0.41,0.23-1.24,0.7-1.24,1.4c0.21,2.1,0.62,3.96,0.83,6.29 C1011.99,1475.79,1011.99,1479.52,1012.4,1483.01z M1054.9,1461.58h3.32c3.73-0.23,7.05-0.23,10.57-0.23c0.83,0,1.45,0,2.07-0.23 c1.87-0.7,3.32-0.7,5.18-0.7c0.62,0.47,1.87,0,2.7,0c1.66-0.47,3.11-0.93,4.56-0.93c3.94,0,8.08-0.47,12.02,0.93 c0.21,0,0.83-0.23,0.83-0.47c0.21-1.4,0.42-3.26,0.42-4.89c0.62-3.96,1.04-8.62,1.24-12.81c0.42-3.03,0.21-6.06,0.42-9.08 c0-0.93-0.62-1.17-1.24-1.17c-4.97-0.23-9.54,1.4-14.1,3.03c-2.28,1.4-4.56,3.03-7.05,3.73c-2.28,0.7-4.56,1.86-7.05,2.33 c-2.49,0.23-4.77,0.23-7.46,0c-0.83,0.23-1.87,0.23-2.7,0.23c-1.04-0.23-2.49-0.23-3.94-0.7c-1.45-0.7-1.87-2.56-3.94-3.03 C1053.65,1445.27,1054.48,1453.42,1054.9,1461.58z M1068.16,1471.83c3.11,0.23,6.22,2.1,9.54,1.16 C1074.59,1472.06,1071.48,1471.36,1068.16,1471.83z M1087.44,1524.48c0,0.47-0.21,0.47-0.21,0.7c0.62,0.47,1.04,0.93,1.45,1.4 c0.21,0,1.04-0.47,1.24-0.47c0-0.23-0.21-0.93-0.62-1.17C1088.48,1524.94,1088.27,1524.94,1087.44,1524.48z"/><path d="M1217.83,1441.08l-0.42-0.93h-0.21c0,0.47,0,0.7,0.21,0.93c0,0,0.21,0.23,0.21,0.47c0,0.23-0.21,0.47-0.41,0.7 c-0.21-0.23-0.42-0.23-0.42-0.47c-0.21-0.23-0.21-0.7-0.21-0.7c-0.21-0.47-0.41-1.16-0.83-1.4c-0.62-0.23-1.04,0.23-1.24,0.23 c-1.45,0.7-3.32,0.7-3.94-0.7l-1.87-1.63c-0.41-0.47-0.62-0.7-0.83-1.17h-0.21c-1.87,0.47-2.9,0-3.32-2.1 c-0.62-2.8-0.62-5.82-1.04-8.62c-0.21-2.79-0.62-5.13-0.83-7.92l-0.62-3.73c0-0.23-0.21-0.47-0.21-0.7 c-1.66,0.93-3.11,2.1-4.35,3.26c-3.94,3.49-7.67,6.99-10.78,10.72l-7.05,8.39c-0.62,1.17-1.87,2.33-2.49,3.49 c-0.62,0.93-0.83,2.1-1.24,3.03c-0.42,2.1-1.45,3.96-2.7,6.06c-0.41,0.23-0.83,0.7-1.45,0.93c-0.42,0.93-0.62,0.93-1.45,1.16 c-0.42,0.47-0.62,0.93-1.04,0.93c-0.21-1.17-1.24-1.4-1.87-1.17c-0.62,0.7-1.87,0.23-2.49-0.23c-0.42-0.7-0.83-0.93-1.45-1.4 c0-0.23-0.21-0.23-0.42-0.23c-1.24,0-1.87-0.7-1.87-1.4c-0.21-1.17-0.21-2.33,0.21-3.26c0.62-2.33,1.66-4.43,2.49-6.75 c1.04-2.33,2.28-4.89,3.52-7.22c1.04-3.03,2.69-6.06,3.94-8.85c1.04-2.33,1.87-4.89,2.9-7.22c0.41-1.17,1.04-2.56,1.24-4.19 c0.21-0.93,0.62-1.63,0.83-2.8l0.62-3.49c0.42-3.03,0.62-6.76,1.45-10.25c0.42-3.03,0.42-6.06,0.21-9.32 c0-1.86-0.83-3.49-1.66-5.13c-0.41-0.7-1.04-0.93-1.66-0.47l-1.66,0.7c-0.42-0.47,0.41-1.63,1.66-1.86 c0.83-0.23,1.87-0.23,2.69-0.23c1.66,0,2.49,0.93,3.73,1.86c2.07,2.56,4.15,5.13,5.39,8.39c2.28,5.13,2.9,10.72,2.9,16.31 c0,2.56-0.42,5.13-1.24,7.69v1.17h0.21c0.83-0.7,2.07-1.63,2.69-2.56c3.73-3.03,7.46-5.82,12.02-7.92 c3.11-1.4,6.22-2.33,9.54-2.56h1.45c1.87,0,3.73,0.23,5.39,0.23l4.56-0.7h1.04c1.04,0,1.45-0.23,2.07-1.4 c0.83-1.4,1.24-3.03,1.87-4.19l2.9-6.99c0.62-1.17,1.04-2.8,1.66-4.19c0.62-1.4,1.24-3.26,1.66-4.43 c0.62-1.86,1.24-3.26,2.28-4.89c0.62-2.1,1.45-4.43,2.49-6.06c1.66-3.03,3.11-5.59,4.97-8.15c0.62-1.17,1.87-2.1,2.9-3.49 c1.45-1.63,2.9-2.33,5.18-1.86c0.42,0,0.62,0,0.83-0.23c0.62,0,1.04-0.23,1.66-0.23c2.07,0,2.28,0.47,2.9,2.56 c0.83,3.03,1.66,6.52,2.07,9.78c0.42,2.8,0.42,5.59-0.21,8.62l-1.24,9.32c-0.41,1.63-0.62,3.26-0.83,5.13 c-0.21,0.7-0.21,0.93-0.21,1.86l-0.62,5.82l-0.42,4.66c-0.21,0.93-0.41,2.1-0.41,3.03c-0.21,0.23,0,0.47,0,0.7 c0.21,0,0.41,0,0.62-0.23c2.28-0.93,4.35-2.33,6.63-3.26l0.62-0.23c1.04-1.4,2.28-1.86,3.52-2.1c1.66-0.7,3.73-0.93,5.18-1.63 c0.83-0.23,2.07,0,2.9,0.23c0.41,0,0.83,0.47,1.04,0.93c0.62,0.47,2.07,1.17,2.9,0.7c1.45-0.7,3.11-1.17,4.77-2.1l3.73-0.7 c0.83-0.23,2.07,0.47,2.28,1.86c0.41,1.63,0.62,3.73,0,5.59c-0.42,1.16-1.24,2.33-1.87,3.26c-1.66,3.26-3.94,6.52-6.43,9.32 c-1.04,1.17-2.07,2.56-3.32,3.73c-1.24,1.4-2.49,2.33-3.73,3.49c-1.87,0.93-3.11,1.86-4.97,3.03c-0.42,0.47-1.04,0.7-1.45,0.23 h-1.04c-0.42-0.23-0.83,0-0.62,0.7c-1.24-0.23-1.24-0.23-1.45,0c-0.83,0.23-1.66,0.7-2.49,1.16l-2.49,0.7l-3.32,1.17 c-1.04,0.23-2.28,0.93-3.52,1.16c-0.42,0-0.83,0-1.04-0.47c-0.21-0.47-0.21-1.16,0.21-1.4c0.83-1.86,2.07-3.49,3.32-5.36 c0.83-0.93,1.24-2.56,1.66-3.73c0.21-0.47,0.21-0.47,0.21-0.93c-0.83,0.47-1.45,0.93-2.07,1.4c-2.28,1.17-4.56,1.86-7.05,2.56 h-1.04c-1.04,0.23-1.24,0-1.66-1.17c0-0.7-0.62-0.93-1.24-0.7c-1.66,0.23-3.32-0.23-4.35-1.16l-2.07-1.86l-1.24-0.47 c-1.24,0-1.87-0.93-2.49-1.63c-1.04-1.63-0.83-3.49-0.83-5.13c0-2.56,0.41-4.66,1.24-6.99c0.62-2.1,1.04-3.73,1.87-5.82 l2.28-5.36c0.62-1.4,1.04-2.56,1.45-3.73l1.04-2.8c0.83-1.86,2.07-3.96,3.11-6.06c0.62-2.1,1.66-4.19,2.49-6.06l1.66-6.06 c0.62-1.63,1.04-3.73,1.45-5.59l0.62-3.26c0.21-1.17,0.21-2.1,0.41-2.8c0-0.23,0-0.7-0.21-0.7c-0.21-0.23-0.42-0.23-0.62,0 c-0.41,0-0.62,0.47-0.62,0.47l-4.97,4.66l-2.7,3.73l-2.07,3.96c-0.83,1.4-1.45,3.03-2.07,4.19l-1.04,3.96 c-0.83,0.93-1.04,2.1-1.45,3.49l-0.83,2.33c-0.21,0.47-0.42,1.16-0.62,1.4l-0.62,2.56l-0.62,2.33l-1.04,3.5 c-0.21,0.93-0.41,1.63-0.83,2.79l-0.62,2.8c0,0.23,0.21,0.93,0.42,1.16c1.87,1.4,1.24,2.1,0.41,3.73l-2.07,2.56 c-0.83,0.93-1.04,2.56-1.24,3.73c-0.41,1.4-0.41,2.33-0.62,3.49c-0.21,2.56-0.62,4.89-0.83,6.99l-0.62,6.29l-0.62,5.13l-0.42,1.4 c-0.62,1.4-1.66,2.33-2.28,3.73c-0.21,0-0.41,0.47-0.83,0.7c-0.62,0.23-1.24,1.4-1.66,2.1c-0.42,1.17-1.45,1.17-2.69,2.1 C1218.45,1440.84,1218.24,1440.84,1217.83,1441.08z M1253.9,1515.16c0,0.23,0,0.47,0.21,0.7h-0.62c-1.24-0.7-2.28-0.47-3.32,0 c-0.83,0-1.87,0-2.9,0.23c-1.04,0.23-1.66,0.7-2.49,0.7l-2.28,0.93l-2.9,0.7l-1.45,0.47c-0.83,0.23-0.83,1.17-1.04,1.86v5.36 c0,3.49-0.21,7.22,0,10.48c0,3.26,1.04,6.29,4.35,7.92c1.45,1.4,3.73,1.86,5.8,2.1c1.04,0.23,2.07,0.47,2.9,0.47 c4.35,0.23,8.71,0.47,13.27,0.47c3.94,0,7.67-0.47,11.82-0.7c1.87-0.23,3.94-0.23,6.22-0.23c1.87-0.23,3.94-0.47,6.43-0.47h6.84 c0.21,0,0.42,0.23,0.83,0.23c0.42,0,0.83,0.23,1.24,0.23v-0.23l-0.42-0.7c0.42-0.7,0-1.17-0.41-1.63 c-1.04-2.33-1.87-4.66-2.49-6.99c-0.21-2.33-0.21-4.89-0.21-6.76c0-1.63,0.21-3.26,0.83-4.66v-0.47l1.24-5.36 c0.42-1.16,0.42-2.1,0.83-3.26c0.42-0.93,1.04-1.86,1.45-3.26c0.62-0.93,1.24-2.1,1.66-3.26c1.04-1.86,1.87-3.73,2.28-5.59 l1.66-4.43c0.83-2.1,1.87-4.19,2.49-6.29c0.83-1.17,1.24-2.56,1.87-3.49c0.62-1.17,1.45-2.56,2.28-3.73c0,0,0.21-0.47,0.41-0.47 v0.7c-0.62,0.7-0.62,1.86-0.62,3.03l-0.83,3.73c-0.21,1.4,0,2.56-0.21,3.96l0.21,0.93c0.21,2.33,0.21,4.66,0.62,7.22 c0.21,2.56,1.66,5.13,2.9,7.45l1.66,3.5c1.04,2.56,2.28,5.36,3.11,7.92l3.32,7.69l1.24,3.49c1.45,2.1,2.49,3.73,3.73,5.82 c2.07,3.03,4.35,5.59,7.25,7.92c0.21,0.23,0.83,0.23,0.83,0.7c0,0.7-0.21,1.17-0.62,1.63c-0.21,0.7-0.83,1.86-1.45,2.33 c-0.83,0.7-1.45,1.63-1.66,2.33l-0.41,0.47c-1.45,0.23-1.66,1.63-2.49,2.1l-0.41,0.7c0,0.23,0,0.23-0.21,0.23 c-0.21,0.93-2.9,1.63-3.52,1.4l-3.32-0.47c-0.21,0-0.42,0.23-0.83,0.23c0.41,0,0.41,0.23,0.41,0.23c0.83,0.7,1.66,0.93,2.28,1.4 c0.21,0.23,0.42,0.23,0.83,0.7c-0.62,0-1.04,0.23-1.24,0.23l-2.49-1.63c-0.62-0.47-1.45-0.93-2.28-0.93 c-1.45-0.23-2.7-1.17-3.73-1.63c-1.24-0.47-2.49-0.7-3.73-0.7c-3.94,0.23-7.88,0.23-12.02,0.23c-3.11,0.23-5.8,0.47-8.5,0.93 c-1.04,0-2.07,0.23-2.7,0.23c-0.41,0.23-0.83,0.23-1.45,0.23l-2.9,0.7c-0.42,0-1.04-0.23-1.66-0.23h-1.24 c-2.49,0.7-5.18,0.7-7.88,0.93l-12.44,0.47c-5.18,0-10.16-0.23-15.34-0.23c-0.62,0-1.45,0-2.49-0.23c-0.21,0-0.62-0.23-1.04-0.23 c-0.21,0-0.42-0.23-0.62-0.23c-2.07,0.23-3.94-0.93-5.8-1.4c-1.04-0.23-2.07-0.93-2.7-1.16l-2.69-1.4 c-2.7-0.7-4.77-2.33-6.84-3.73c-0.42-0.47-1.04-0.93-1.87-1.17c-2.7-1.4-4.98-3.26-6.43-5.82c-0.62-1.63-1.04-3.03-1.24-4.19 c-0.21-1.86-0.21-3.73-0.21-5.59c0-1.63,0.42-3.73,0.62-5.82v-0.7c0-0.93-0.21-1.17-0.83-0.7l-7.67,3.49l-9.33,3.73 c-1.45,0.47-2.9,0.47-4.35,1.17c-1.87,0.47-3.11,0.23-4.98,0c-0.62-0.23-1.04-0.7-1.66-1.17c-0.62-0.47-1.04-0.93-2.07-1.17 c-0.42,0-0.62-0.23-0.62-0.93c-0.21-0.93,0-2.1,0.83-3.03c3.11-3.49,6.22-7.45,9.33-10.72c4.35-4.43,8.5-8.62,12.64-13.05 l8.08-8.15l0.83-0.93l-0.21-0.23c-0.62,0.23-1.24,0.93-2.07,0.93c-2.28,1.16-4.98,1.86-7.46,2.79c-2.28,0.47-4.35,0.7-6.84,0.23 c3.94,0,7.46-1.17,10.78-2.33c-0.41,0-0.62-0.23-0.83,0c-1.66,0.23-3.32,0.7-5.18,0.7c-1.24,0.23-2.49,0-4.15-0.23h-1.45 c-0.83,0-1.45,0.23-2.07,0.23c-1.87-0.47-3.32-0.93-4.77-2.56c-0.21-0.47-0.83-0.93-1.66-0.93s-2.07-1.17-2.07-2.1 s0.62-2.1,1.66-2.33c1.66-0.93,3.11-2.1,4.56-3.03l2.28-1.86c3.52-3.03,7.25-6.29,10.78-9.78c2.7-2.56,5.18-5.36,7.88-7.92 l11.82-12.35c0.83-0.7,1.45-1.63,2.28-2.79c-1.04-0.23-1.87-0.47-2.49-0.47c-2.69,0-4.77-0.7-7.25-1.4 c-1.04-0.7-2.07-1.4-3.52-2.1c-1.24-0.93-2.7-1.86-3.73-3.03c-1.04-1.4-2.28-3.03-2.7-4.66c-0.21-0.47-0.62-1.16-1.04-1.63 c0.62,0,1.04,0.47,1.45,0.7c1.24,0.7,1.66,1.4,2.69,1.86c1.66,1.16,3.11,2.1,5.18,2.56c1.66,0.23,3.52,1.16,5.18,1.16 c1.24,0.23,2.49,0,3.73,0c3.52-1.16,6.43-3.03,9.12-4.89l2.07-1.4c1.24-0.93,1.87-0.93,2.9,0c0.62,0.7,1.45,1.16,2.07,1.63 c0.42,0.23,0.62,0.47,1.04,0.93c0.21,0.23,0.62,0.47,0.83,0.47c0.83-0.23,1.45-0.47,1.87-0.47c1.24-0.23,2.49-0.47,3.52-1.17 c1.45-0.93,2.9-1.86,4.56-2.1h1.24c0,0.47,0,0.7-0.21,1.17c-1.04,1.63-2.49,3.49-3.94,4.66c-1.66,2.1-4.15,3.73-6.22,5.13 c-1.66,1.16-3.11,1.86-4.97,2.56c-0.21,0-0.41,0.23-0.41,0c-1.66-0.23-2.7,0.47-3.73,1.4c0,0.23,0,0.23-0.21,0.23 c-3.11,1.16-5.39,3.96-8.08,6.06l-3.11,3.03c0,0-0.21,0-0.21,0.47h0.62c1.66-0.93,3.52-0.93,5.39-0.7c1.87,0,2.07,1.4,2.69,2.33 l0.42,0.47c0.21,0.7,0.41,0.7,0.83,0.7c2.9-1.17,5.6-1.86,8.29-2.33c1.66-0.47,3.52-0.93,5.39-0.93c1.66,0,3.32,0.47,4.56,1.63 c0.83,0.7,2.07,0.7,3.11,0.47c2.07-0.93,3.73-2.1,5.8-2.56c0.42-0.47,1.24-0.23,2.28,0c0.62,0,1.04,0.47,0.62,1.16 c-0.62,1.17-1.45,2.56-2.28,3.26c-1.45,1.86-3.32,3.49-5.39,5.13c-3.32,2.1-6.63,4.43-9.74,6.76l-4.15,3.73 c-0.62,0.47-0.62,0.93-0.21,1.63c0.83,1.16,1.87,2.56,2.9,3.73l4.15,4.89c1.45,1.86,3.11,3.26,4.98,4.89 c2.9,2.33,5.8,4.19,8.5,6.06c0.41,0.23,0.83,0.7,1.04,0.93c0.62,0.47,0.83,1.4,0.41,1.86c-0.83,1.4-2.07,2.33-2.69,3.49 c-0.21,0.23-0.42,0.23-0.42,0.47c-0.62,1.17-2.07,1.86-3.32,1.86C1254.1,1514.92,1253.9,1514.92,1253.9,1515.16z M1194.2,1527.97 h0.21c1.87-1.16,4.35-2.1,6.43-2.79c3.32-1.86,6.63-3.26,9.95-4.89c1.24-0.23,2.28-1.16,2.28-2.56s0.21-2.56,0.21-3.96 c0.21-1.63,0.62-3.26,0.83-5.13c0-0.23,0-0.7-0.21-0.93l-0.42,0.23c-2.28,2.1-4.56,4.19-6.63,6.29c-2.07,2.1-4.15,4.19-6.01,6.29 l-2.49,2.56c-1.04,0.93-2.49,2.33-3.52,3.49C1194.61,1526.81,1194.4,1527.5,1194.2,1527.97z M1219.49,1470.43v-3.73 c-6.01,5.36-11.61,11.18-16.79,17.24v0.23c6.01-3.73,11.82-7.22,18.03-10.48C1219.49,1472.76,1219.28,1471.83,1219.49,1470.43z M1221.14,1409.39l1.04-1.17c-0.41-0.23-0.41-0.47-0.62-0.47c-1.45-0.47-2.7-0.93-4.15-1.17c-1.24-0.23-2.69,0-3.73,0 c-0.21,0-0.41,0-0.62,0.23l-2.07,0.93c-1.24,0.7-3.11,1.4-4.35,2.56c-0.83,0.23-0.83,0.7,0,0.93l4.77,3.03l4.35,3.26 c0.42,0.23,0.62,0.23,1.04,0l2.49-4.19L1221.14,1409.39z M1221.77,1471.83h0.41c0.42-1.63,1.24-2.8,1.87-4.19 c0-0.23-0.21-0.93-0.42-0.93c-0.62-0.23-1.87,0.47-1.87,0.93c0,1.17-0.21,2.1-0.21,3.03 C1221.56,1470.66,1221.77,1471.36,1221.77,1471.83z M1308.62,1557.79h1.04v-0.23c-0.21,0-0.21-0.23-0.62-0.23 c-1.04-0.47-2.49-0.47-3.94-0.47c-2.9,0-5.6,0-7.88,0.23c-3.73,0.23-6.84,0.7-9.95,1.17c-1.24,0-2.28,0.23-3.73,0.23 c-1.24,0.23-2.49,0.23-3.73,0.47c-2.28,0-4.77,0.47-7.25,0.7c-2.7,0-5.39,0.23-8.08,0.23c-4.35,0-9.12,0.23-13.47,0 c-3.52,0-7.05-0.23-10.78-0.47c-2.28-0.23-4.77-0.23-7.25-0.47l0.62,0.7c2.07,0.47,4.56,1.17,6.43,1.4l4.98,0.23 c2.9,0,5.8,0.23,8.91,0.23c2.49,0,4.77,0,7.46-0.23c2.28,0,4.77,0,7.25-0.23c4.15-0.23,7.88-0.93,11.82-1.17 c2.07,0,4.15-0.47,6.01-0.7l7.46-0.47c2.07-0.23,4.15-0.47,6.43-0.47c1.24-0.47,3.11-0.47,4.56-0.47h3.71V1557.79z M1236.48,1487.2l-1.87,2.1h0.21c0.21,3.03,0.62,5.82,1.04,8.39c0.21,1.86,0.62,3.5,0.62,5.13c0.21,2.56,0.41,4.89,0.41,6.99 c0,0.7,0.42,0.93,1.24,0.7l3.52-0.7c0.42-0.23,0.62-0.93,0.42-1.17c-1.87-1.63-2.28-3.73-2.49-5.82 c-0.42-1.86-0.42-3.26-0.42-5.13c0-3.26-1.04-6.52-2.07-9.78C1237.11,1487.67,1236.48,1487.2,1236.48,1487.2z M1254.1,1420.81 v-0.23h-1.24c-0.42,0.23-0.83,0.47-1.24,0.47h-3.11c-0.21,0-0.41,0.23-0.83,0.23c0.21,0.23,0.42,0.47,0.62,0.93h0.41 c1.45,0.47,2.7-0.47,3.94-0.7C1253.48,1421.28,1253.9,1421.04,1254.1,1420.81z M1255.76,1466.47c-1.45,0.23-2.28,0.7-3.73,1.4 C1253.69,1467.87,1254.52,1466.93,1255.76,1466.47z M1270.69,1424.54l-1.45,1.16 C1270.07,1426.17,1270.27,1425.47,1270.69,1424.54z"/><path d="M1423.46,1473.69c-1.45,3.26-3.11,6.76-4.35,10.48c-2.07,6.06-5.18,11.65-8.5,16.77c-3.11,4.89-5.6,9.55-8.5,14.21 c-3.52,5.36-7.67,10.25-12.44,14.44l-1.87,1.4c-1.04,0.23-1.45-0.47-1.87-1.4c0-1.16,0-1.16-0.83-0.47 c-1.45,0.23-2.7,0-3.52-1.17c-0.83-0.93-1.24-1.4-1.87-2.33c-0.42,0-1.04,0.7-1.45,0c-0.62-0.7-1.24-1.63-0.83-3.03 c0.21-3.26,0.62-6.76,1.24-9.78c0.21-3.96,1.04-7.92,1.66-11.88c0.41-2.8,1.24-5.82,1.87-8.85c0.42-3.03,1.24-6.29,1.66-9.32 c0.21-2.33,0.83-4.43,1.24-6.52c0.41-3.49,1.24-6.52,1.66-9.55c0.83-3.03,1.04-5.36,1.45-7.92c0.21-3.49,1.04-6.52,1.04-9.55 v-2.8l-2.9,2.33c-5.6,3.5-10.16,7.69-15.13,12.35l-18.86,16.77c-2.28,2.1-4.56,4.19-7.05,6.06c-0.62,0.23-1.04,0.47-1.66,0.47 c-0.83,0.47-1.24,0-1.24-0.93c0-0.47,0-0.7-1.04-0.47c-0.83,0.47-1.87,0-2.7-0.93c-0.21-0.47-1.24-1.17-1.45-1.4 c0,0,0-0.23,0.21-0.23h-0.21c-0.83,0-1.24,0-1.24-0.47c-0.21,0-0.83-0.7-0.42-1.17c0.21-1.86,1.24-2.56,2.07-3.49 c2.9-1.63,5.39-3.73,7.46-6.76c6.01-8.15,11.82-16.77,17.83-25.16c2.7-3.96,5.6-7.69,8.71-12.11c1.24-2.56,2.9-5.36,4.35-7.69 c0.21-0.23,0.21-0.7,0.62-0.93v-1.4c-0.62-0.7-0.83-1.86-1.45-2.8c-0.42-0.7-1.04-1.16-1.24-2.1c-1.45-1.63-3.11-3.03-4.77-4.89 c-0.62-0.7-1.04-1.17-1.24-2.33c-1.24-0.93-2.49-1.86-3.73-2.56l-3.11-0.7l-3.32-1.17c-0.83-0.7-1.66-0.7-2.28-0.7 c-2.28-0.23-3.94-0.7-5.6-0.93c-0.62,0-1.45-0.23-1.45-0.7c0-1.4,0.83-0.93,1.45-0.93c1.45-0.47,3.11-0.47,4.97-0.47h2.07 c1.45,0,2.9-0.23,4.15-0.23c1.87,0,3.94-0.47,5.8-0.47c4.56-0.23,9.12,0.47,13.68,1.16c3.94,0.93,7.25,2.56,10.16,6.29 c1.04,1.4,2.69,3.03,3.73,4.66c0.83,0.93,0.83,2.8,0,3.96c-0.62,1.17-1.04,2.1-2.28,3.96c0,0.23,0,0.47-0.42,0.93 c-0.83,0.23-1.24,1.4-1.66,2.56c-0.41,0.47-0.41,0.47-0.83,0.7c-0.83,0-1.45,0.7-2.49,1.16v0.93c0,0.47-0.21,0.47-0.42,0.47 c-0.41,0-0.83-0.23-1.04-0.23c-1.24-0.47-2.28-0.47-3.52-0.23c-2.28,0.47-3.73,2.33-5.6,4.19c-3.73,3.5-7.05,7.46-9.95,11.18 c-2.07,3.03-4.35,5.59-6.43,8.85c-1.66,2.56-3.73,5.36-5.6,7.69c-1.87,2.56-3.52,5.13-4.97,7.69c-0.42,0-0.42,0.47-0.42,0.47 c0.42,0,0.42,0,0.62-0.47c4.77-4.43,9.74-8.85,14.72-13.28c3.94-4.19,8.71-7.92,13.89-11.18c2.28-1.86,4.56-3.03,7.25-3.73 c1.45-0.7,2.9-1.16,3.94-0.47c0.83,0.47,1.24,0.47,1.45,1.17c0.62,0.23,0.83,0.23,1.45,0c1.24-0.7,2.28-1.86,3.73-2.33 s3.32,0.47,3.32,2.33c0.21,3.03,0.21,5.59,0.21,8.39c0,4.19-0.41,8.39-1.24,12.81c-0.21,3.73-0.42,6.76-1.04,9.78l-1.24,7.92 c-0.21,2.33-0.62,4.66-0.83,7.22c-0.62,3.03-1.24,5.59-1.45,8.39c-0.21,2.56-0.62,5.13-0.62,7.69c-0.42,1.63-0.42,3.49-0.83,4.89 v0.7h0.83c0,0,0-0.23,0.41-0.23c3.73-5.13,7.67-10.02,11.82-14.68c1.87-2.33,3.73-4.19,5.8-6.29c2.28-2.33,4.56-4.89,6.63-7.45 c2.07-2.1,3.94-3.96,5.6-6.29c0.21-0.23,0.41-0.23,1.24-0.47v0.23C1424.08,1471.83,1423.67,1472.76,1423.46,1473.69z M1342.82,1483.01v0.93c0,0.23,0.21,0.23,0.62,0.23c0.62-0.23,1.04-0.7,1.66-0.7V1483L1342.82,1483.01L1342.82,1483.01z M1382.62,1425.7c1.24,0.23,2.49,0.7,3.73,0.93c0-0.93,0-1.4-0.83-1.4S1383.66,1425.24,1382.62,1425.7z M1389.26,1529.37 c-0.83,0-1.45-0.23-1.66-0.23h-1.04v0.93c0.21,0.23,0.62,0.47,1.04,0.23C1387.81,1530.07,1388.43,1529.6,1389.26,1529.37z M1392.16,1438.98c1.45-0.23,2.9-1.4,4.15-2.1C1394.85,1436.88,1393.61,1438.28,1392.16,1438.98z M1530.21,1507.47l-2.07,4.66 l-1.66,1.63c-0.62,1.4-1.24,1.86-2.07,2.56c-0.41,0-0.83,0.23-0.83,0.23c0.42,0.93-0.21,1.4-0.83,1.4l-3.32,0.93 c-4.77,1.4-9.74,2.1-14.72,2.33c-5.8,1.4-11.19,2.1-16.79,2.79l-17,2.33c-4.77,0.7-9.54,0.7-14.51,0.7 c-2.49,0.47-5.18,0.47-7.67,0.47c-2.49-0.47-5.6-0.47-7.88-1.86c-2.07-0.7-4.56-1.63-6.22-3.03c-1.45-1.4-3.11-2.1-4.35-3.26 c-2.07-1.4-3.11-3.73-4.35-6.06c-1.45-3.03-1.87-6.76-2.28-9.78c-0.41-4.19-0.41-8.62-0.21-13.05c0-5.13,1.04-10.02,3.11-14.91 l0.83-3.73c0-0.23,0-0.47-0.21-0.47c-1.45-0.93-3.11-1.63-4.35-2.8c-1.04-0.7-1.24-1.63-1.04-2.33c0.21-0.7,0.62-0.7,1.04-0.7 c1.24,1.17,2.9,1.17,3.94-0.23c3.73-2.79,7.67-5.82,11.82-8.39c1.04-0.7,2.28-1.86,3.73-2.56c0.42-0.47,0.83-0.7,0.83-1.86 c0-0.23,0.21-0.23,0.62-0.7c2.07-1.63,3.32-3.5,4.35-6.06c3.73-8.15,7.25-16.31,10.36-24.93c0.21-0.47,0.21-1.4,0.41-2.33 c-0.62,0.47-1.24,0.93-1.87,0.93c-4.15,1.86-8.29,3.49-12.02,5.13c-1.87,1.16-3.32,1.4-4.98,2.1c-2.9,1.16-5.8,2.1-9.12,2.1 h-0.83c2.9,0,5.6-0.93,8.5-2.1c5.6-2.1,11.61-5.13,17.41-7.22c1.24-0.47,2.28-0.93,3.32-1.63v-0.23 c-0.62,0.23-1.04,0.7-1.66,0.93c-5.39,2.1-10.57,4.43-15.96,6.76c-3.11,1.17-6.63,2.56-10.57,2.56c-1.45,0-3.32,0.47-4.56-0.7 c-1.24-0.23-2.07-1.17-2.9-1.4c-0.21,0-0.41-1.16-0.41-1.16c0-1.86,0.41-4.19,0.83-6.29c0.41-0.47,0.41-0.47,0.83-0.7 c0.41,0,0.41,0,0.41,0.23v3.03c0.42,0.7,0.42,1.17,0.62,1.86c0,0.93,0.83,1.17,1.24,0.93c3.94-2.1,8.08-3.49,11.82-5.36 c6.01-3.49,11.61-6.99,17.41-10.02c1.45-0.93,2.9-1.86,4.35-2.33c1.24-0.7,1.87-0.47,2.69,0.7v0.7c1.24,0,2.07,0.93,3.11,0.47 c0,0.47-0.41,0.47-0.41,0.47v0.23l7.88-3.73v-0.7c0.41,0,0.83,0,1.24,0.7c0.42,0.47,0.42,0.47,0.42,0.7 c0.41,2.79,0,5.36-0.42,7.92c-2.9,9.32-6.22,17.94-9.95,26.56c-1.87,3.26-3.52,6.99-5.6,10.25v0.7c0.42,0,1.04-0.47,1.66-0.7 c1.24-0.23,2.49-0.7,3.94-0.7c1.24-0.23,2.9-0.23,4.35,0c0.62,0,1.04,0.47,1.66,0.7c0.21,0,0.21,0.7,0.21,1.17 c-0.62,0.93-0.83,1.63-1.24,2.56c-0.42,0.47-0.83,1.16-1.24,2.33c-0.41,0.23-0.41,0.23-0.62,0.23c-0.83,0.93-1.66,2.1-1.87,3.03 c0,0.47-0.41,0.93-0.83,0.93c-0.41,0-1.04,0.93-1.87,1.17c-0.21,0.23-0.83,0.23-0.42,0.93l-0.83,1.16 c-2.9,1.63-5.6,2.56-8.5,3.26c-3.52,0.7-7.05,1.86-10.36,2.8c-0.42,0-0.62,0.23-0.62,0.7c-0.21,3.5-0.41,6.52-0.83,10.25 c-0.21,3.73-0.62,7.46-0.62,11.18c0,3.26,0.42,6.52,1.04,10.25c0.21,3.03,1.04,6.06,2.9,8.85c0.83,2.33,2.49,3.03,4.56,3.96 c2.7,0.23,5.6,0.23,8.5,0.23h6.22c4.15-0.23,7.88-0.93,11.82-1.4c2.7,0,5.39-0.47,7.88-0.93c3.52-0.47,7.05-0.7,10.37-1.63 l9.33-0.7l6.63-0.93h0.83c-0.41-0.7-0.83-1.4-1.24-1.63c-1.66-2.33-3.32-5.13-4.56-7.69c-0.83-0.93-1.24-2.1-1.66-2.79 c-0.42,0-0.42-0.23-0.42-0.23c-1.87-1.4-2.07-3.73-2.49-5.36c-0.42-2.8-0.62-5.13-0.62-7.92c0-1.63,0.62-3.49,1.04-4.89 c0.62-3.26,1.04-6.29,1.87-9.32c0.62-2.8,1.24-5.13,2.28-7.92v-12.58c1.24,1.16,2.49,12.35,3.73,11.88 c0.42,1.17,1.24,2.56,2.07,3.5c1.04,2.33,2.07,5.13,3.32,6.99c0.62,1.17,1.04,2.1,1.45,2.56c0.83,1.4,1.87,2.8,2.28,4.66 c7.46,17.47,9.33,20.73,10.99,23.3C1531.04,1503.51,1531.67,1505.61,1530.21,1507.47z M1523.17,1516.79c-0.42,0-0.83-0.23-0.83,0 c-3.94,1.4-8.5,1.86-12.44,2.56l-15.34,1.63c-4.35,0.93-8.71,1.63-13.47,2.33c-3.52,0.7-7.05,0.93-10.78,1.63 c-4.77,0.23-9.54,0.47-14.3,0.47c-4.77,0.23-9.12,0-13.89,0h-0.62c0.21,0.23,0.62,0.23,1.24,0.7c2.28,0.47,4.77,0.93,7.25,0.93 c3.11,0,6.84-0.47,9.74-0.47c6.84,0,12.65-0.93,18.86-1.63l11.4-1.86c2.9-0.47,6.01-1.17,9.12-1.4l16.58-2.33 c2.28-0.7,4.56-1.17,6.63-1.86C1522.75,1517.49,1522.75,1517.25,1523.17,1516.79z M1443.15,1469.27c0.21,0,0.21,0.47,0.21,0 l5.39-1.4c1.87-0.47,3.11-1.16,5.18-1.16c2.9-1.4,5.39-2.1,8.08-3.73l0.42-0.47c-3.11,1.4-6.63,2.1-9.74,3.03l-8.91,3.26 C1443.77,1468.8,1443.36,1468.8,1443.15,1469.27z M1458.49,1452.49c1.66-0.7,3.52-1.16,5.18-2.33 C1462.64,1449.93,1458.91,1451.33,1458.49,1452.49z M1474.04,1404.04l-6.43,3.26c1.04-0.7,2.07-1.17,2.9-1.86l3.32-1.4H1474.04z"/><path d="M1615.41,1553.83l-0.21,0.23v0.23c-0.21,0.47-0.41,1.4-1.45,1.4c-0.41,0.23-0.62-0.93-0.83-1.16 c-0.62-0.7-1.04-2.1-1.66-3.03c-0.41-2.33-0.83-4.66-1.04-6.99c-0.42-0.93-0.62-2.1-0.83-3.26c-0.42-1.86-0.83-3.96-1.45-5.82 c0-1.17-0.21-1.86-0.21-3.26c-0.42-2.79-0.62-5.82-0.83-8.62c-0.21-2.1-1.24-4.19-1.87-6.06c0-0.7-0.21-0.93-0.41-1.4 c-2.07,0.23-4.15-0.93-5.8-1.17c-1.04-0.23-1.87-1.17-2.69-1.86c-0.42-0.23-1.24-0.23-1.45-0.47c-1.04-0.93-1.04-1.86,0-2.56 c0.21-0.23,0.83-0.23,0.83-1.16c0.21-0.23,0.42-0.23,0.62-0.23c0.41,0.23,1.45,1.17,1.87,1.17c0.42,0.23,1.04,0,1.45,0 c1.04-1.17,2.49-1.86,3.52-2.1c1.04-0.23,0.62-1.17,0.41-1.63c-0.62-2.1-1.04-3.73-1.24-5.82v-0.47c1.04,2.33,2.07,4.19,2.9,6.76 c1.45-0.23,2.28-0.7,3.32-0.93c2.07-0.7,4.15-2.1,5.8-2.8c0.83-0.23,1.04-0.47,1.24-0.93v-1.63l0.62-12.11 c0.21-4.19,0.83-8.85,1.24-13.28c0.21-3.73,0.21-7.22,0.83-10.72c0.21-1.63,0.21-3.73,0.62-5.36c0-0.23,0-0.7-0.42-0.93 c-0.21,0-0.21,0-0.21-0.23l-2.07,4.66c-1.24,2.33-2.49,4.66-3.32,6.99c-0.83,1.4-2.07,3.03-2.49,4.66 c-1.87,3.03-3.11,5.59-4.97,8.15c-1.66,2.56-3.11,5.13-4.35,7.69c-2.7,4.66-6.01,8.85-8.5,13.28c-1.45,2.33-3.11,4.66-4.77,6.52 c-0.62,0.7-1.66,1.4-2.49,2.1c-1.66,2.1-3.32,3.49-4.77,4.66c-1.24,1.63-2.9,2.56-4.35,2.56c-0.83,0-1.24,0-1.45-0.47 s-0.83-0.7-1.04-1.17c0,0,0-0.47,0.21-0.47c0,0.47,0.21,0.47,0.62,0.7c0.41,0.93,0.83,0.93,1.87,0.47 c0.83-0.23,1.87-0.7,3.11-1.86h-0.83c-0.62,0-1.04,0.23-1.24,0.23c-1.04-0.23-2.28-0.7-3.73-0.93c-0.42,0-0.83-0.23-1.04,0 l-2.28,0.7c-0.62,0.23-1.04,0.23-1.24,0h-1.66c-0.42-0.23-0.62-0.47-1.04-1.17c-1.04-0.7-1.66-1.17-2.49-2.33 c-0.41-0.47-0.83-0.93-0.83-1.63c-0.21-0.23-0.21-0.7-0.83-0.23c-0.41,0-0.62,0.23-1.24,0.23c-0.62,0.7-1.24,0.7-2.07-0.47 c0-0.47-0.42-0.7-0.62-0.93c-0.41-0.93-0.41-1.4,0-1.86c0,0,0.21,0,0.21-0.23c-0.41-1.86,0.62-2.33,1.87-3.03 c2.49-1.63,4.56-3.49,5.6-6.06c0.42-1.4,1.04-3.03,1.45-5.13c1.24-2.1,1.66-3.49,1.66-5.59c0.21-1.86,1.04-3.73,1.45-5.36 c0.83-2.79,1.45-5.36,2.28-7.92c0.21-1.86,0.41-3.73,1.24-5.13h0.42c-0.42,0.47-0.42,0.93-0.42,1.4 c-0.41,0.93-0.83,1.63-1.04,2.33c0.21,0.7,0,1.4,0,1.86c0,0.93,0,2.33-0.21,3.96c0,1.17-0.21,2.56-0.21,4.19 c-0.21,1.63-0.21,3.03-0.83,5.13c0,0.23,0.62,1.4,0.62,2.1h0.42c0.41-0.7,0.41-2.1,1.04-2.56c1.87-2.56,3.52-5.36,5.6-7.69 c3.11-5.82,6.63-11.18,9.95-16.54c2.9-3.96,5.18-8.15,7.67-11.65c1.66-2.56,3.11-4.89,4.97-7.22c0.83-1.4,2.28-2.56,2.7-3.96 c1.04-1.16,2.28-2.56,3.11-3.73c0-0.23,0-0.7-0.42-0.93c-1.66-1.16-3.11-2.33-4.97-3.03c-1.87-0.7-3.32-1.4-4.77-1.63 c-1.04-0.47-2.9-0.47-3.94-0.7c-2.07,0-4.35,0.23-6.43,0.23c-1.66,0-2.49,0.7-3.52,1.4c-0.42,0.7-0.62,1.4-1.24,1.86v-0.47 c1.24-2.1,2.7-3.96,5.39-4.19c3.73-0.7,7.05-0.7,10.78-0.47c2.49,0.23,4.97,1.4,7.46,1.86c1.66,0.47,2.9,1.4,4.56,1.63 c0.42,0,0.83,0,1.24-0.23c1.45-1.17,3.11-1.86,4.15-3.5c0.83-0.7,1.87-0.47,2.9-0.47c0.62-0.23,0.83-0.23,0.62-1.16v-5.13 c0-0.47-0.42-0.7-1.45-0.47c-4.35,0.47-8.5,2.1-12.85,2.79c-2.49,0.23-5.39,0.23-8.5,1.63h-0.83v-0.7h0.83 c2.07-0.7,4.35-0.93,6.43-1.16c2.07-0.23,4.56-0.47,6.63-1.17c2.07-0.23,3.32-0.93,4.98-1.4c1.04,0,2.49-0.23,3.52-0.7h0.83 l0.42-0.47c-0.21,0-0.42-0.47-0.62-0.47c-1.24,0.47-2.69,0.7-3.73,0.7c-1.87,0.7-3.94,0.93-5.6,1.63l-6.43,1.4 c-2.7,0-4.98,0.47-7.25,0.93h-5.8c-2.07,0.23-4.35,0-6.22,0h-2.28c-1.45,0-3.11,0-4.35-0.23c-1.66-0.23-2.9-1.4-4.35-2.33 c-1.24-0.47-1.66-1.86-1.24-3.5c0.83-0.47,0.83-1.16,1.24-2.33c0.21-0.47,0.83-0.7,1.66-1.86c0.21,1.16,0.21,1.4,0.21,2.1 c0,1.86,1.04,3.5,2.9,3.96c2.49,0.23,4.56-0.47,7.05-0.93c1.04-0.23,2.7-0.93,3.94-0.93c0.62,0,1.45-0.47,1.87-0.7 c3.11-0.93,6.22-2.1,9.74-3.49c1.66-0.7,3.73-1.4,5.18-1.86c1.66-0.7,2.9-0.93,4.15-1.17l9.12-3.96c0.41,0,0.21-0.47,0.21-0.93 c0-3.73,0-7.92-0.21-11.42c-0.42-3.03-0.42-6.29-0.83-8.85v-1.4c-0.21-1.63,0-3.03,0.41-4.66c0.42-0.23,0.83-0.47,1.04-0.93 c0.62-0.7,0.83-0.93,0.21-1.4c-0.21-0.23-0.42-0.23-0.42-0.47v-0.47c0.21,0.47,0.42,0.7,1.04,0.7v-0.7 c-0.21-0.7-0.21-1.16,0-1.63c0.21,0,0.21-0.7,0.21-0.7c-0.21-3.03-0.62-6.29-2.7-8.85c-0.83-0.7-1.45-2.33-2.07-3.03 c-0.83-1.4-2.49-2.56-3.52-3.49c-0.83,0-1.24,0-1.66,0.47c-0.21,0-0.62,0.47-0.62,0.47c0.42,0.7,0.42,1.86,0.42,2.56h-0.42 c0-1.17-0.41-2.1-0.41-3.03c0-0.47,0.41-0.7,0.41-0.7c0.83,0,1.66-0.7,2.49-0.23c3.11,1.17,5.6,2.79,7.67,5.13 c0.83,1.4,2.28,3.03,3.52,3.96c0.83,1.86,1.24,3.73,1.87,5.36c0,0.93,0.42,1.4,0.83,2.33c1.04-0.93,1.24-0.23,1.45,0.23 l0.83,0.93c0.83,0.93,1.24,1.4,2.07,1.17c0.21,0,1.24,0.23,1.45,0.7c0.21,1.17,0.41,2.1,0.83,3.26c0.21,1.17,1.04,2.56,1.24,3.49 c0,0.7,0.62,0.7,0.83,0.93c2.49,0.93,5.18,1.63,7.88,1.63c1.45,0,3.52,0.47,4.97,0.7c1.04,0.23,1.87,0.23,3.32,0.23l5.18,0.93 c1.24,0.23,2.07,0.23,3.11,0.23c0.62,0,1.24-0.23,2.28,0h2.49c0.41,0,0.62,0,0.83,0.93c0.42-0.23,0.62-0.93,0.62-0.93h1.87 c2.07,0,3.94,0,6.01,0.23c0.83,0,1.45,0.47,1.87,0.7c2.7,0,4.15,0.47,6.22,0.7c0.83,0.47,1.66,1.17,2.28,1.4 c0.83,0.23,0.83,0.93,0.42,2.1c-0.62,0.93-1.04,1.17-1.45,2.56c-0.42,0.47-0.83,1.63-1.66,2.56c0,0-0.21,0.23-0.21,0.47 c-0.41,1.17-1.24,1.86-1.87,2.33c-0.21,0.23-0.62,0.23-0.83,0.7c-0.62,0.7-1.24,1.4-1.45,1.86c-0.21,0-0.21,0.7-0.21,0.7 c0.21,1.17-0.21,1.4-1.24,1.63c0,0-0.21,0.47-0.62,0.47c-0.62,0.23-1.24,0.7-1.66,0.7c-2.07-0.47-4.35-0.47-6.22-0.23 c-0.62,0-0.83,0-1.04,0.47c0.42,0,1.24,0.23,1.87,0.23c0.83,0.93,2.28,0.93,3.32,1.17c0.21,0,0.21,0,0.41,0.23 c0.21,0.47,0.21,0.47,0.21,0.7c-0.21,0-0.42,0.23-0.62,0.23c-1.45-0.47-3.11-0.7-4.77-0.7c-2.7,0.23-4.98,0.23-7.88,0.93 l-10.78,1.86c-2.49,0.93-5.18,1.63-7.67,2.1c-1.45,0.23-2.7,0.47-3.94,0.93c-0.21,0,0,0.7,0,1.16v19.1c0,1.86,0,3.96-0.21,5.59 c0,0.93,0.21,1.17,0.62,1.4c3.94,2.33,7.88,4.43,12.02,6.75c4.15,2.8,8.5,5.59,12.85,8.62c2.07,0.93,3.73,2.56,6.22,4.19 c3.52,3.5,7.88,6.76,12.02,10.25c2.07,1.4,4.15,3.26,6.22,5.13c0.83,0.47,1.04,0.23,1.24-0.23c0.21-0.93,0-1.63,0-2.1 c0.21-2.56,0.21-5.13,0.62-7.69c0.42-2.1,1.24-4.19,1.66-5.59c0.21-1.86,0.62-3.26,1.24-4.66l1.04-4.89 c0.83-2.33,1.45-4.66,2.49-6.76c1.04-2.8,2.07-5.59,3.73-8.15c1.04-3.03,2.69-6.06,4.56-9.32c1.24-2.33,2.07-4.19,3.94-6.06 l2.07-4.19h0.21v0.7c-0.83,1.63-1.66,3.49-2.07,5.36c0,1.4-0.41,3.26-0.83,4.43c-0.62,1.4-1.24,3.03-1.45,3.96 c-0.21,2.1-0.41,3.5,0,5.36c0.21,1.4,0.21,2.56,0.21,3.96c0.42,2.8,0.83,5.13,1.45,7.92c0.62,1.86,1.24,3.96,2.28,6.06 c0.21,1.4,0.83,2.8,1.24,4.43c0.62,1.4,1.45,2.79,1.87,4.43c0.62,1.17,1.04,2.8,1.66,4.19c0.42,2.56,1.66,5.36,3.11,8.15 c0.42,1.63,1.24,3.49,1.45,4.89c0.42,2.1,1.24,3.96,1.87,5.82c0.62,2.1,1.45,5.13,2.49,7.22c0.83,2.1,1.45,3.49,2.69,5.13 c0.42,1.17,1.04,1.63,1.66,1.86c3.52,1.4,6.43,2.56,9.54,4.19c1.04,0.23,2.49,0.7,3.32,1.4c1.04,0.93,1.24,1.86,0.62,2.79 c-1.04,1.17-1.66,3.03-2.28,3.96c-0.42,0-0.42,0.47-0.42,0.47c-1.24,0.23-0.41,1.63-1.04,2.56l-1.45,0.7 c-0.21,0.47-0.42,0.7-0.62,1.17l-1.24,2.1c-0.21,0.23-0.21,0.47-0.21,0.7c-0.21,0.7-0.83,0.7-1.45,0.93l-1.04,0.93 c-0.62,0-0.83,0.47-1.45,0.47c-0.62,0.47-1.45,0.23-2.49,0.23c-0.21,0-0.41,0.23-0.83,0.23c0.62,0.23,1.04,0.47,1.24,0.93 c0.41,0.47,0.62,0.7,0.83,1.17c0.21,0.23,0.21,0.47-0.42,0.47c-1.87,0-3.73,0.47-5.8,0.47c-1.87-0.47-3.73-1.17-4.77-2.56 c-1.04-0.47-1.45-0.47-1.66-0.47c-3.73-0.47-6.63-2.1-8.71-4.43c-0.62-0.7-1.45-1.17-2.28-1.17c-1.66-0.47-3.52-1.63-5.6-3.03 c-0.62-1.17-1.66-1.86-2.28-2.56c-0.62-1.17-1.66-1.86-2.69-2.56c-2.9-1.86-6.22-3.73-9.33-5.82c-2.28-0.93-4.35-2.79-6.63-4.19 c-2.07-2.1-4.56-3.96-6.43-6.06c-1.66-1.86-3.11-3.96-4.56-6.06c-1.66-2.1-3.73-4.19-5.39-6.06c-2.07-2.33-4.35-5.13-6.84-8.39 c-2.9-3.03-6.22-6.06-9.54-9.32l-7.46-7.22c-0.21-0.47-0.62-0.7-0.83-1.17c-0.21,0.7-0.21,1.17-0.21,1.4 c-0.42,4.66-0.42,9.32-0.42,13.74c0,2.56,0.42,5.59,0,8.15c-0.21,3.49-0.41,6.99-0.41,10.95v2.79c0,0.23,0,0.47,1.04,0.47 c1.87,0,3.94,0,6.22-0.23h0.41c2.28,1.4,3.94,0,6.01-0.47c1.87-0.47,3.11-0.7,4.56-1.4c2.07-0.47,4.15-0.7,6.43-1.16h2.7 c1.45,0,3.11,0,4.56,0.93c0.62,0,0.62,1.17,0.83,1.4c0.42,3.03-0.21,5.82-2.07,8.15c-0.83,0.93-2.07,2.33-3.52,2.33 c-0.21,0.23-0.83,0.47-1.66,0.47h0.21h1.45h0.21c-0.21,0.23-0.42,0.7-1.04,0.7c-1.45,1.16-2.69,1.4-3.73,1.86 c-0.41,0.23-1.24,0.47-1.66,0.47c-2.49-0.23-4.35,0.23-6.84,0.93l-5.8,1.17l-6.63,1.63h-0.21c-2.28,0.47-1.87,0.47-1.87,2.79 c0,3.5,0.42,7.46,0.42,10.72c0.21,2.33,0.83,4.89,1.04,7.92l0.41,4.66c0.42,1.17,1.04,3.03,1.45,5.13 c0.21,1.17,0.42,2.8-0.41,4.43c-0.83,1.17-1.24,2.8-1.66,3.73c0,0.47-0.62,0.7-0.62,0.93c-0.21,0.93-0.83,1.4-1.87,2.1 c-0.21,0-0.41,0.23-0.41,0.93c-0.62,0.47-0.83,1.4-1.24,2.56l-1.24,0.7c-0.21,0-0.42,0-0.83,0.23c0,0-0.21,0.47-0.62,0.47 c-1.24,0-1.24,0.47-1.04,1.4c-0.21,0.23-0.41,0.93-0.62,1.17l-1.24-0.93l-1.24-2.1c-0.41-0.47-0.62-0.47-0.83-0.23 c-0.62,0-1.66,0.23-2.07,0.7h-0.21c-1.24-0.47-2.07-0.47-2.9-1.17c-0.42-0.7-1.24-1.63-1.87-1.86c-0.62-0.47-0.62-0.93-1.04-1.86 C1615.83,1554.53,1615.62,1554.06,1615.41,1553.83z M1610.85,1516.79h0.62c1.04,0,1.87-0.23,2.49-0.23l0.83-0.7 c-0.21,0-0.62-0.47-0.83-0.47c-0.83,0-1.87,0.47-2.9,0.47l-0.42,0.47C1610.64,1516.56,1610.85,1516.79,1610.85,1516.79z M1614.58,1521.91h0.21c0-0.93-0.21-2.1-0.21-3.26c0-1.4,0-1.86-1.45-1.4h-0.83c-1.04,0-1.04,0.23-0.83,1.17 c0.62,0.47,1.04,0.93,1.24,1.63C1613.55,1520.98,1613.96,1521.45,1614.58,1521.91z M1625.36,1558.95 c0.42,0.93,0.62,1.4,1.04,1.86c0,0.23,0.83,0,0.83,0c0-0.47-0.42-0.93-0.42-1.63 C1626.61,1558.95,1626.19,1559.19,1625.36,1558.95z M1660.19,1506.07v-0.23h-0.62c-0.62,0.23-1.24,0.47-1.87,0.23 c-2.7-0.23-5.6,0.47-8.5,1.17c-1.45,0.47-2.9,0.7-4.56,0.93c-2.28,0.47-4.35,1.4-6.63,1.63c-1.04,0.23-1.87,0.7-2.9,0.93 c-0.21,0-0.42,0.47-0.62,0.47c0.42,0.47,0.62,0.47,0.83,0.47h0.62c2.49-0.7,4.97-1.17,7.46-1.86c2.07-0.23,3.94-0.93,5.39-1.17 c2.28-0.23,4.15-0.7,6.01-0.7c0.62-0.23,1.24,0,1.66-0.23C1657.91,1507.47,1659.36,1506.54,1660.19,1506.07z M1634.9,1392.85 l-0.21,0.23c0.21,2.56,0.42,4.89,0.42,7.22c0,0.7,0.21,0.93,0.83,0.93c1.87-0.7,3.94-1.17,5.6-1.63c0.21-0.47,0.62-0.47,0.83-0.7 C1639.87,1397.05,1636.97,1394.95,1634.9,1392.85z M1664.33,1410.33c-0.62-0.47-0.83-1.16-1.87-1.16c-0.42,0-1.04,0-2.07,0.23 c-2.07,0.47-4.35,0.93-6.63,1.17c-2.28,0.47-4.98,0.93-7.88,1.86c-3.11,0.93-6.22,1.63-9.95,3.03c-0.21,0-0.62,0-0.21,0.7 c2.9-0.7,6.43-1.4,9.54-2.56l9.54-1.86C1658.11,1411.26,1661.43,1410.56,1664.33,1410.33z M1659.56,1493.26v-0.23 c-4.56,0.23-8.91,1.63-13.27,3.26h1.45c0.62,0,1.66-0.93,2.69-0.93c2.07-0.7,4.35-0.93,6.63-1.17 C1657.7,1493.49,1658.94,1493.26,1659.56,1493.26z M1725.28,1527.5c-2.07-2.33-4.77-1.4-7.67-1.4h-0.62 C1718.44,1527.97,1724.03,1528.67,1725.28,1527.5z"/></g></g></switch></svg>